<mxfile host="Electron" modified="2024-07-12T19:32:22.228Z" agent="Mozilla/5.0 (Windows NT 10.0; Win64; x64) AppleWebKit/537.36 (KHTML, like Gecko) draw.io/24.4.8 Chrome/124.0.6367.207 Electron/30.0.6 Safari/537.36" etag="Bo4aKmH5TA8bXYH0bked" version="24.4.8" type="device">
  <diagram name="Page-1" id="KZN-zyBD-0XipZeYQRDT">
    <mxGraphModel dx="572" dy="331" grid="1" gridSize="10" guides="1" tooltips="1" connect="1" arrows="1" fold="1" page="1" pageScale="1" pageWidth="500" pageHeight="200" math="0" shadow="0">
      <root>
        <mxCell id="0" />
        <mxCell id="1" parent="0" />
        <mxCell id="b95crAYpzDAx5Qbeu-VA-285" value="" style="group" parent="1" vertex="1" connectable="0">
          <mxGeometry x="9" y="78" width="482.6" height="44.45" as="geometry" />
        </mxCell>
        <mxCell id="PZP4gdgeWaH-fIwLRfgN-368" value="" style="rounded=0;whiteSpace=wrap;html=1;fillColor=#FFFFFF;strokeColor=#DDDDDD;glass=0;aspect=fixed;container=0;" parent="b95crAYpzDAx5Qbeu-VA-285" vertex="1">
          <mxGeometry width="482.6" height="44.45" as="geometry" />
        </mxCell>
        <mxCell id="PZP4gdgeWaH-fIwLRfgN-369" value="" style="rounded=0;whiteSpace=wrap;html=1;fillColor=#FFFFFF;strokeColor=#DDDDDD;glass=0;container=0;" parent="b95crAYpzDAx5Qbeu-VA-285" vertex="1">
          <mxGeometry x="18" width="200" height="44.45" as="geometry" />
        </mxCell>
        <mxCell id="PZP4gdgeWaH-fIwLRfgN-376" value="" style="rounded=0;whiteSpace=wrap;html=1;fillColor=#000000;fontColor=#ffffff;strokeColor=none;container=0;" parent="b95crAYpzDAx5Qbeu-VA-285" vertex="1">
          <mxGeometry x="7" y="35.45" width="4" height="6" as="geometry" />
        </mxCell>
        <mxCell id="PZP4gdgeWaH-fIwLRfgN-381" value="" style="ellipse;whiteSpace=wrap;html=1;aspect=fixed;strokeColor=none;fillColor=#000000;container=0;" parent="b95crAYpzDAx5Qbeu-VA-285" vertex="1">
          <mxGeometry x="8" y="35.45" width="6" height="6" as="geometry" />
        </mxCell>
        <mxCell id="PZP4gdgeWaH-fIwLRfgN-382" value="" style="ellipse;whiteSpace=wrap;html=1;aspect=fixed;strokeColor=none;fillColor=#000000;container=0;" parent="b95crAYpzDAx5Qbeu-VA-285" vertex="1">
          <mxGeometry x="4" y="35.45" width="6" height="6" as="geometry" />
        </mxCell>
        <mxCell id="PZP4gdgeWaH-fIwLRfgN-385" value="" style="rounded=0;whiteSpace=wrap;html=1;fillColor=#000000;fontColor=#ffffff;strokeColor=none;container=0;" parent="b95crAYpzDAx5Qbeu-VA-285" vertex="1">
          <mxGeometry x="7" y="3" width="4" height="6" as="geometry" />
        </mxCell>
        <mxCell id="PZP4gdgeWaH-fIwLRfgN-386" value="" style="ellipse;whiteSpace=wrap;html=1;aspect=fixed;strokeColor=none;fillColor=#000000;container=0;" parent="b95crAYpzDAx5Qbeu-VA-285" vertex="1">
          <mxGeometry x="8" y="3" width="6" height="6" as="geometry" />
        </mxCell>
        <mxCell id="PZP4gdgeWaH-fIwLRfgN-387" value="" style="ellipse;whiteSpace=wrap;html=1;aspect=fixed;strokeColor=none;fillColor=#000000;container=0;" parent="b95crAYpzDAx5Qbeu-VA-285" vertex="1">
          <mxGeometry x="4" y="3" width="6" height="6" as="geometry" />
        </mxCell>
        <mxCell id="PZP4gdgeWaH-fIwLRfgN-391" value="" style="rounded=0;whiteSpace=wrap;html=1;fillColor=#000000;fontColor=#ffffff;strokeColor=none;container=0;" parent="b95crAYpzDAx5Qbeu-VA-285" vertex="1">
          <mxGeometry x="471.6" y="35.45" width="4" height="6" as="geometry" />
        </mxCell>
        <mxCell id="PZP4gdgeWaH-fIwLRfgN-392" value="" style="ellipse;whiteSpace=wrap;html=1;aspect=fixed;strokeColor=none;fillColor=#000000;container=0;" parent="b95crAYpzDAx5Qbeu-VA-285" vertex="1">
          <mxGeometry x="472.6" y="35.45" width="6" height="6" as="geometry" />
        </mxCell>
        <mxCell id="PZP4gdgeWaH-fIwLRfgN-393" value="" style="ellipse;whiteSpace=wrap;html=1;aspect=fixed;strokeColor=none;fillColor=#000000;container=0;" parent="b95crAYpzDAx5Qbeu-VA-285" vertex="1">
          <mxGeometry x="468.6" y="35.45" width="6" height="6" as="geometry" />
        </mxCell>
        <mxCell id="PZP4gdgeWaH-fIwLRfgN-395" value="" style="rounded=0;whiteSpace=wrap;html=1;fillColor=#000000;fontColor=#ffffff;strokeColor=none;container=0;" parent="b95crAYpzDAx5Qbeu-VA-285" vertex="1">
          <mxGeometry x="471.6" y="3" width="4" height="6" as="geometry" />
        </mxCell>
        <mxCell id="PZP4gdgeWaH-fIwLRfgN-396" value="" style="ellipse;whiteSpace=wrap;html=1;aspect=fixed;strokeColor=none;fillColor=#000000;container=0;" parent="b95crAYpzDAx5Qbeu-VA-285" vertex="1">
          <mxGeometry x="472.6" y="3" width="6" height="6" as="geometry" />
        </mxCell>
        <mxCell id="PZP4gdgeWaH-fIwLRfgN-397" value="" style="ellipse;whiteSpace=wrap;html=1;aspect=fixed;strokeColor=none;fillColor=#000000;container=0;" parent="b95crAYpzDAx5Qbeu-VA-285" vertex="1">
          <mxGeometry x="468.6" y="3" width="6" height="6" as="geometry" />
        </mxCell>
        <mxCell id="PZP4gdgeWaH-fIwLRfgN-705" value="RESET" style="text;align=center;verticalAlign=middle;rounded=0;spacing=0;spacingBottom=0;textShadow=0;fontFamily=Teko Light;fontSize=3;fontColor=#000000;spacingRight=0;spacingLeft=0;whiteSpace=wrap;html=1;container=0;" parent="b95crAYpzDAx5Qbeu-VA-285" vertex="1">
          <mxGeometry x="28.53000000000003" y="36.28000000000001" width="6.44" height="2.4" as="geometry" />
        </mxCell>
        <mxCell id="PZP4gdgeWaH-fIwLRfgN-704" value="" style="ellipse;whiteSpace=wrap;html=1;aspect=fixed;strokeWidth=0.1;strokeColor=#000000;fillColor=#222222;container=0;" parent="b95crAYpzDAx5Qbeu-VA-285" vertex="1">
          <mxGeometry x="30.060000000000002" y="31.907272727272748" width="3.372727272727273" height="3.372727272727273" as="geometry" />
        </mxCell>
        <mxCell id="0mIf3ANARtZ_98zYbFkS-88" value="" style="rounded=1;html=1;strokeColor=#000000;fillColor=#0000FF;fontColor=#000000;strokeWidth=0.1;fontSize=3;fontFamily=Helvetica;container=0;whiteSpace=wrap;arcSize=50;" parent="b95crAYpzDAx5Qbeu-VA-285" vertex="1">
          <mxGeometry x="105.72" y="32.96950495049506" width="3" height="3" as="geometry" />
        </mxCell>
        <mxCell id="0mIf3ANARtZ_98zYbFkS-90" value="POWER" style="text;align=center;verticalAlign=middle;rounded=0;spacing=0;spacingBottom=0;textShadow=0;fontFamily=Teko Light;fontSize=3;fontColor=#000000;spacingRight=0;spacingLeft=0;whiteSpace=wrap;html=1;container=0;" parent="b95crAYpzDAx5Qbeu-VA-285" vertex="1">
          <mxGeometry x="104.00000000000003" y="38.97000000000001" width="6.44" height="2.4" as="geometry" />
        </mxCell>
        <mxCell id="b95crAYpzDAx5Qbeu-VA-1" value="&lt;font style=&quot;font-size: 5px;&quot;&gt;CSS610-8G-2S+IN&lt;/font&gt;" style="text;html=1;align=center;verticalAlign=middle;rounded=0;fillColor=none;strokeColor=none;fontSize=5;fontFamily=Teko Light;spacing=0;fontColor=#000000;whiteSpace=wrap;" parent="b95crAYpzDAx5Qbeu-VA-285" vertex="1">
          <mxGeometry x="188" y="5" width="25" height="3" as="geometry" />
        </mxCell>
        <mxCell id="b95crAYpzDAx5Qbeu-VA-2" value="PoE in" style="text;html=1;align=center;verticalAlign=middle;rounded=0;fontSize=3;fontColor=#000000;fontFamily=Teko Light;spacing=0;whiteSpace=wrap;spacingRight=0;" parent="b95crAYpzDAx5Qbeu-VA-285" vertex="1">
          <mxGeometry x="116.5" y="38.449999999999996" width="10" height="3.45" as="geometry" />
        </mxCell>
        <mxCell id="b95crAYpzDAx5Qbeu-VA-23" value="" style="group" parent="b95crAYpzDAx5Qbeu-VA-285" vertex="1" connectable="0">
          <mxGeometry x="178" y="20.45" width="32" height="18" as="geometry" />
        </mxCell>
        <mxCell id="b95crAYpzDAx5Qbeu-VA-13" value="" style="group" parent="b95crAYpzDAx5Qbeu-VA-23" vertex="1" connectable="0">
          <mxGeometry x="17" width="15" height="17.999999999999993" as="geometry" />
        </mxCell>
        <mxCell id="0mIf3ANARtZ_98zYbFkS-96" value="" style="rounded=0;whiteSpace=wrap;html=1;strokeColor=#000000;fillColor=#BFBFBF;fontColor=#ffffff;strokeWidth=0.1;container=0;align=center;verticalAlign=middle;fontFamily=Teko Light;fontSize=3;" parent="b95crAYpzDAx5Qbeu-VA-13" vertex="1">
          <mxGeometry y="8" width="15" height="9.999999999999993" as="geometry" />
        </mxCell>
        <mxCell id="0mIf3ANARtZ_98zYbFkS-105" value="" style="rounded=0;whiteSpace=wrap;html=1;strokeColor=#AAAAAA;fillColor=#000000;fontColor=#ffffff;strokeWidth=0.1;container=0;" parent="b95crAYpzDAx5Qbeu-VA-13" vertex="1">
          <mxGeometry x="0.6000000000000227" y="8.526315789473685" width="13.79032258064516" height="8.947368421052628" as="geometry" />
        </mxCell>
        <mxCell id="0mIf3ANARtZ_98zYbFkS-106" value="" style="rounded=0;whiteSpace=wrap;html=1;strokeColor=#AAAAAA;fillColor=#BFBFBF;fontColor=#ffffff;strokeWidth=0.1;container=0;" parent="b95crAYpzDAx5Qbeu-VA-13" vertex="1">
          <mxGeometry x="5.080645161290363" y="16.85631578947371" width="4.838709677419354" height="0.6140350877192979" as="geometry" />
        </mxCell>
        <mxCell id="0mIf3ANARtZ_98zYbFkS-147" value="" style="rounded=0;html=1;strokeColor=#000000;fillColor=#00FF00;fontColor=#000000;strokeWidth=0.1;fontSize=3;fontFamily=Helvetica;container=0;whiteSpace=wrap;" parent="b95crAYpzDAx5Qbeu-VA-13" vertex="1">
          <mxGeometry x="11" y="2.9995049504950515" width="3" height="3" as="geometry" />
        </mxCell>
        <mxCell id="0mIf3ANARtZ_98zYbFkS-148" value="10G" style="text;align=center;verticalAlign=middle;rounded=0;spacing=0;spacingBottom=0;textShadow=0;fontFamily=Lucida Console;fontSize=2;fontColor=#000000;spacingRight=0;spacingLeft=0;whiteSpace=wrap;html=1;container=0;" parent="b95crAYpzDAx5Qbeu-VA-13" vertex="1">
          <mxGeometry x="10.139999999999986" width="4.72" height="2.4" as="geometry" />
        </mxCell>
        <mxCell id="0mIf3ANARtZ_98zYbFkS-142" value="" style="rounded=0;html=1;strokeColor=#000000;fillColor=#00FF00;fontColor=#000000;strokeWidth=0.1;fontSize=3;fontFamily=Helvetica;container=0;whiteSpace=wrap;" parent="b95crAYpzDAx5Qbeu-VA-13" vertex="1">
          <mxGeometry x="1" y="2.9995049504950515" width="3" height="3" as="geometry" />
        </mxCell>
        <mxCell id="0mIf3ANARtZ_98zYbFkS-143" value="ACT" style="text;align=center;verticalAlign=middle;rounded=0;spacing=0;spacingBottom=0;textShadow=0;fontFamily=Lucida Console;fontSize=2;fontColor=#000000;spacingRight=0;spacingLeft=0;whiteSpace=wrap;html=1;container=0;" parent="b95crAYpzDAx5Qbeu-VA-13" vertex="1">
          <mxGeometry x="0.13999999999998636" y="0.010000000000005116" width="4.72" height="2.4" as="geometry" />
        </mxCell>
        <mxCell id="b95crAYpzDAx5Qbeu-VA-14" value="" style="group" parent="b95crAYpzDAx5Qbeu-VA-23" vertex="1" connectable="0">
          <mxGeometry width="15" height="17.999999999999993" as="geometry" />
        </mxCell>
        <mxCell id="b95crAYpzDAx5Qbeu-VA-15" value="" style="rounded=0;whiteSpace=wrap;html=1;strokeColor=#000000;fillColor=#BFBFBF;fontColor=#ffffff;strokeWidth=0.1;container=0;align=center;verticalAlign=middle;fontFamily=Teko Light;fontSize=3;" parent="b95crAYpzDAx5Qbeu-VA-14" vertex="1">
          <mxGeometry y="8" width="15" height="9.999999999999993" as="geometry" />
        </mxCell>
        <mxCell id="b95crAYpzDAx5Qbeu-VA-16" value="" style="rounded=0;whiteSpace=wrap;html=1;strokeColor=#AAAAAA;fillColor=#000000;fontColor=#ffffff;strokeWidth=0.1;container=0;" parent="b95crAYpzDAx5Qbeu-VA-14" vertex="1">
          <mxGeometry x="0.6000000000000227" y="8.526315789473685" width="13.79032258064516" height="8.947368421052628" as="geometry" />
        </mxCell>
        <mxCell id="b95crAYpzDAx5Qbeu-VA-17" value="" style="rounded=0;whiteSpace=wrap;html=1;strokeColor=#AAAAAA;fillColor=#BFBFBF;fontColor=#ffffff;strokeWidth=0.1;container=0;" parent="b95crAYpzDAx5Qbeu-VA-14" vertex="1">
          <mxGeometry x="5.080645161290363" y="16.85631578947371" width="4.838709677419354" height="0.6140350877192979" as="geometry" />
        </mxCell>
        <mxCell id="b95crAYpzDAx5Qbeu-VA-18" value="" style="rounded=0;html=1;strokeColor=#000000;fillColor=#00FF00;fontColor=#000000;strokeWidth=0.1;fontSize=3;fontFamily=Helvetica;container=0;whiteSpace=wrap;" parent="b95crAYpzDAx5Qbeu-VA-14" vertex="1">
          <mxGeometry x="11" y="2.9995049504950515" width="3" height="3" as="geometry" />
        </mxCell>
        <mxCell id="b95crAYpzDAx5Qbeu-VA-19" value="10G" style="text;align=center;verticalAlign=middle;rounded=0;spacing=0;spacingBottom=0;textShadow=0;fontFamily=Lucida Console;fontSize=2;fontColor=#000000;spacingRight=0;spacingLeft=0;whiteSpace=wrap;html=1;container=0;" parent="b95crAYpzDAx5Qbeu-VA-14" vertex="1">
          <mxGeometry x="10.139999999999986" width="4.72" height="2.4" as="geometry" />
        </mxCell>
        <mxCell id="b95crAYpzDAx5Qbeu-VA-20" value="" style="rounded=0;html=1;strokeColor=#000000;fillColor=#00FF00;fontColor=#000000;strokeWidth=0.1;fontSize=3;fontFamily=Helvetica;container=0;whiteSpace=wrap;" parent="b95crAYpzDAx5Qbeu-VA-14" vertex="1">
          <mxGeometry x="1" y="2.9995049504950515" width="3" height="3" as="geometry" />
        </mxCell>
        <mxCell id="b95crAYpzDAx5Qbeu-VA-21" value="ACT" style="text;align=center;verticalAlign=middle;rounded=0;spacing=0;spacingBottom=0;textShadow=0;fontFamily=Lucida Console;fontSize=2;fontColor=#000000;spacingRight=0;spacingLeft=0;whiteSpace=wrap;html=1;container=0;" parent="b95crAYpzDAx5Qbeu-VA-14" vertex="1">
          <mxGeometry x="0.13999999999998636" y="0.010000000000005116" width="4.72" height="2.4" as="geometry" />
        </mxCell>
        <mxCell id="u_5jVX6GxhMMPaia9oR6-25" value="" style="rounded=0;whiteSpace=wrap;html=1;strokeColor=#000000;fillColor=#BFBFBF;fontColor=#ffffff;strokeWidth=0.1;fontSize=3;fontFamily=Teko Light;align=center;verticalAlign=middle;container=0;" parent="b95crAYpzDAx5Qbeu-VA-285" vertex="1">
          <mxGeometry x="113" y="10.450000000000003" width="62" height="28" as="geometry" />
        </mxCell>
        <mxCell id="u_5jVX6GxhMMPaia9oR6-68" value="" style="rounded=0;whiteSpace=wrap;html=1;strokeColor=none;fillColor=#000000;fontColor=#ffffff;strokeWidth=0.1;fontSize=3;fontFamily=Teko Light;container=0;" parent="b95crAYpzDAx5Qbeu-VA-285" vertex="1">
          <mxGeometry x="160.49714285714285" y="26.94407849331151" width="12" height="7" as="geometry" />
        </mxCell>
        <mxCell id="u_5jVX6GxhMMPaia9oR6-69" value="" style="rounded=0;whiteSpace=wrap;html=1;strokeColor=none;fillColor=#000000;fontColor=#ffffff;strokeWidth=0.1;fontSize=3;fontFamily=Teko Light;container=0;" parent="b95crAYpzDAx5Qbeu-VA-285" vertex="1">
          <mxGeometry x="163.4985714285714" y="32.947576744186065" width="6" height="4" as="geometry" />
        </mxCell>
        <mxCell id="u_5jVX6GxhMMPaia9oR6-65" value="" style="rounded=0;whiteSpace=wrap;html=1;strokeColor=none;fillColor=#000000;fontColor=#ffffff;strokeWidth=0.1;fontSize=3;fontFamily=Teko Light;container=0;" parent="b95crAYpzDAx5Qbeu-VA-285" vertex="1">
          <mxGeometry x="145.49714285714285" y="26.94407849331151" width="12" height="7" as="geometry" />
        </mxCell>
        <mxCell id="u_5jVX6GxhMMPaia9oR6-66" value="" style="rounded=0;whiteSpace=wrap;html=1;strokeColor=none;fillColor=#000000;fontColor=#ffffff;strokeWidth=0.1;fontSize=3;fontFamily=Teko Light;container=0;" parent="b95crAYpzDAx5Qbeu-VA-285" vertex="1">
          <mxGeometry x="148.4985714285714" y="32.947576744186065" width="6" height="4" as="geometry" />
        </mxCell>
        <mxCell id="u_5jVX6GxhMMPaia9oR6-62" value="" style="rounded=0;whiteSpace=wrap;html=1;strokeColor=none;fillColor=#000000;fontColor=#ffffff;strokeWidth=0.1;fontSize=3;fontFamily=Teko Light;container=0;" parent="b95crAYpzDAx5Qbeu-VA-285" vertex="1">
          <mxGeometry x="130.49714285714285" y="26.94407849331151" width="12" height="7" as="geometry" />
        </mxCell>
        <mxCell id="u_5jVX6GxhMMPaia9oR6-63" value="" style="rounded=0;whiteSpace=wrap;html=1;strokeColor=none;fillColor=#000000;fontColor=#ffffff;strokeWidth=0.1;fontSize=3;fontFamily=Teko Light;container=0;" parent="b95crAYpzDAx5Qbeu-VA-285" vertex="1">
          <mxGeometry x="133.4985714285714" y="32.947576744186065" width="6" height="4" as="geometry" />
        </mxCell>
        <mxCell id="u_5jVX6GxhMMPaia9oR6-59" value="" style="rounded=0;whiteSpace=wrap;html=1;strokeColor=none;fillColor=#000000;fontColor=#ffffff;strokeWidth=0.1;fontSize=3;fontFamily=Teko Light;container=0;" parent="b95crAYpzDAx5Qbeu-VA-285" vertex="1">
          <mxGeometry x="115.49714285714285" y="26.947576744186065" width="12" height="6.99650174912544" as="geometry" />
        </mxCell>
        <mxCell id="u_5jVX6GxhMMPaia9oR6-60" value="" style="rounded=0;whiteSpace=wrap;html=1;strokeColor=none;fillColor=#000000;fontColor=#ffffff;strokeWidth=0.1;fontSize=3;fontFamily=Teko Light;container=0;" parent="b95crAYpzDAx5Qbeu-VA-285" vertex="1">
          <mxGeometry x="118.49857142857141" y="32.947576744186065" width="6" height="4" as="geometry" />
        </mxCell>
        <mxCell id="u_5jVX6GxhMMPaia9oR6-29" value="" style="rounded=0;whiteSpace=wrap;html=1;strokeColor=none;fillColor=#000000;fontColor=#ffffff;strokeWidth=0.1;fontSize=3;fontFamily=Teko Light;container=0;" parent="b95crAYpzDAx5Qbeu-VA-285" vertex="1">
          <mxGeometry x="115.49714285714285" y="14.951074995060623" width="12" height="6.99650174912544" as="geometry" />
        </mxCell>
        <mxCell id="u_5jVX6GxhMMPaia9oR6-30" value="" style="rounded=0;whiteSpace=wrap;html=1;strokeColor=none;fillColor=#000000;fontColor=#ffffff;strokeWidth=0.1;fontSize=3;fontFamily=Teko Light;container=0;" parent="b95crAYpzDAx5Qbeu-VA-285" vertex="1">
          <mxGeometry x="118.49857142857142" y="11.947576744186065" width="6" height="4" as="geometry" />
        </mxCell>
        <mxCell id="u_5jVX6GxhMMPaia9oR6-36" value="" style="rounded=0;whiteSpace=wrap;html=1;strokeColor=none;fillColor=#000000;fontColor=#ffffff;strokeWidth=0.1;fontSize=3;fontFamily=Teko Light;container=0;" parent="b95crAYpzDAx5Qbeu-VA-285" vertex="1">
          <mxGeometry x="130.49714285714285" y="14.951074995060623" width="12" height="7" as="geometry" />
        </mxCell>
        <mxCell id="u_5jVX6GxhMMPaia9oR6-37" value="" style="rounded=0;whiteSpace=wrap;html=1;strokeColor=none;fillColor=#000000;fontColor=#ffffff;strokeWidth=0.1;fontSize=3;fontFamily=Teko Light;container=0;" parent="b95crAYpzDAx5Qbeu-VA-285" vertex="1">
          <mxGeometry x="133.4985714285714" y="11.947576744186065" width="6" height="4" as="geometry" />
        </mxCell>
        <mxCell id="u_5jVX6GxhMMPaia9oR6-39" value="" style="rounded=0;whiteSpace=wrap;html=1;strokeColor=none;fillColor=#000000;fontColor=#ffffff;strokeWidth=0.1;fontSize=3;fontFamily=Teko Light;container=0;" parent="b95crAYpzDAx5Qbeu-VA-285" vertex="1">
          <mxGeometry x="145.49714285714285" y="14.951074995060623" width="12" height="7" as="geometry" />
        </mxCell>
        <mxCell id="u_5jVX6GxhMMPaia9oR6-40" value="" style="rounded=0;whiteSpace=wrap;html=1;strokeColor=none;fillColor=#000000;fontColor=#ffffff;strokeWidth=0.1;fontSize=3;fontFamily=Teko Light;container=0;" parent="b95crAYpzDAx5Qbeu-VA-285" vertex="1">
          <mxGeometry x="148.4985714285714" y="11.947576744186065" width="6" height="4" as="geometry" />
        </mxCell>
        <mxCell id="u_5jVX6GxhMMPaia9oR6-42" value="" style="rounded=0;whiteSpace=wrap;html=1;strokeColor=none;fillColor=#000000;fontColor=#ffffff;strokeWidth=0.1;fontSize=3;fontFamily=Teko Light;container=0;" parent="b95crAYpzDAx5Qbeu-VA-285" vertex="1">
          <mxGeometry x="160.49714285714285" y="14.951074995060623" width="12" height="7" as="geometry" />
        </mxCell>
        <mxCell id="u_5jVX6GxhMMPaia9oR6-43" value="" style="rounded=0;whiteSpace=wrap;html=1;strokeColor=none;fillColor=#000000;fontColor=#ffffff;strokeWidth=0.1;fontSize=3;fontFamily=Teko Light;container=0;" parent="b95crAYpzDAx5Qbeu-VA-285" vertex="1">
          <mxGeometry x="163.4985714285714" y="11.947576744186065" width="6" height="4" as="geometry" />
        </mxCell>
        <mxCell id="b95crAYpzDAx5Qbeu-VA-24" value="" style="rounded=0;whiteSpace=wrap;html=1;strokeColor=#000000;fillColor=#60a917;fontColor=#ffffff;strokeWidth=0.1;fontSize=3;fontFamily=Teko Light;container=0;" parent="b95crAYpzDAx5Qbeu-VA-285" vertex="1">
          <mxGeometry x="114.5" y="11.839376744186069" width="3" height="2.1119999999999997" as="geometry" />
        </mxCell>
        <mxCell id="b95crAYpzDAx5Qbeu-VA-25" value="" style="rounded=0;whiteSpace=wrap;html=1;strokeColor=#000000;fillColor=#e3c800;fontColor=#000000;strokeWidth=0.1;fontSize=3;fontFamily=Teko Light;container=0;" parent="b95crAYpzDAx5Qbeu-VA-285" vertex="1">
          <mxGeometry x="125.5" y="11.839376744186069" width="3" height="2.1119999999999997" as="geometry" />
        </mxCell>
        <mxCell id="b95crAYpzDAx5Qbeu-VA-26" value="" style="rounded=0;whiteSpace=wrap;html=1;strokeColor=#000000;fillColor=#60a917;fontColor=#ffffff;strokeWidth=0.1;fontSize=3;fontFamily=Teko Light;container=0;" parent="b95crAYpzDAx5Qbeu-VA-285" vertex="1">
          <mxGeometry x="129.5" y="11.839376744186069" width="3" height="2.1119999999999997" as="geometry" />
        </mxCell>
        <mxCell id="b95crAYpzDAx5Qbeu-VA-27" value="" style="rounded=0;whiteSpace=wrap;html=1;strokeColor=#000000;fillColor=#e3c800;fontColor=#000000;strokeWidth=0.1;fontSize=3;fontFamily=Teko Light;container=0;" parent="b95crAYpzDAx5Qbeu-VA-285" vertex="1">
          <mxGeometry x="140.5" y="11.839376744186069" width="3" height="2.1119999999999997" as="geometry" />
        </mxCell>
        <mxCell id="b95crAYpzDAx5Qbeu-VA-28" value="" style="rounded=0;whiteSpace=wrap;html=1;strokeColor=#000000;fillColor=#60a917;fontColor=#ffffff;strokeWidth=0.1;fontSize=3;fontFamily=Teko Light;container=0;" parent="b95crAYpzDAx5Qbeu-VA-285" vertex="1">
          <mxGeometry x="144.5" y="11.839376744186069" width="3" height="2.1119999999999997" as="geometry" />
        </mxCell>
        <mxCell id="b95crAYpzDAx5Qbeu-VA-29" value="" style="rounded=0;whiteSpace=wrap;html=1;strokeColor=#000000;fillColor=#e3c800;fontColor=#000000;strokeWidth=0.1;fontSize=3;fontFamily=Teko Light;container=0;" parent="b95crAYpzDAx5Qbeu-VA-285" vertex="1">
          <mxGeometry x="155.5" y="11.839376744186069" width="3" height="2.1119999999999997" as="geometry" />
        </mxCell>
        <mxCell id="b95crAYpzDAx5Qbeu-VA-30" value="" style="rounded=0;whiteSpace=wrap;html=1;strokeColor=#000000;fillColor=#60a917;fontColor=#ffffff;strokeWidth=0.1;fontSize=3;fontFamily=Teko Light;container=0;" parent="b95crAYpzDAx5Qbeu-VA-285" vertex="1">
          <mxGeometry x="159.5" y="11.839376744186055" width="3" height="2.1119999999999997" as="geometry" />
        </mxCell>
        <mxCell id="b95crAYpzDAx5Qbeu-VA-31" value="" style="rounded=0;whiteSpace=wrap;html=1;strokeColor=#000000;fillColor=#e3c800;fontColor=#000000;strokeWidth=0.1;fontSize=3;fontFamily=Teko Light;container=0;" parent="b95crAYpzDAx5Qbeu-VA-285" vertex="1">
          <mxGeometry x="170.5" y="11.839376744186055" width="3" height="2.1119999999999997" as="geometry" />
        </mxCell>
        <mxCell id="b95crAYpzDAx5Qbeu-VA-32" value="" style="rounded=0;whiteSpace=wrap;html=1;strokeColor=#000000;fillColor=#60a917;fontColor=#ffffff;strokeWidth=0.1;fontSize=3;fontFamily=Teko Light;container=0;" parent="b95crAYpzDAx5Qbeu-VA-285" vertex="1">
          <mxGeometry x="114.5" y="34.83937674418607" width="3" height="2.1119999999999997" as="geometry" />
        </mxCell>
        <mxCell id="b95crAYpzDAx5Qbeu-VA-33" value="" style="rounded=0;whiteSpace=wrap;html=1;strokeColor=#000000;fillColor=#e3c800;fontColor=#000000;strokeWidth=0.1;fontSize=3;fontFamily=Teko Light;container=0;" parent="b95crAYpzDAx5Qbeu-VA-285" vertex="1">
          <mxGeometry x="125.5" y="34.83937674418607" width="3" height="2.1119999999999997" as="geometry" />
        </mxCell>
        <mxCell id="b95crAYpzDAx5Qbeu-VA-34" value="" style="rounded=0;whiteSpace=wrap;html=1;strokeColor=#000000;fillColor=#60a917;fontColor=#ffffff;strokeWidth=0.1;fontSize=3;fontFamily=Teko Light;container=0;" parent="b95crAYpzDAx5Qbeu-VA-285" vertex="1">
          <mxGeometry x="129.5" y="34.83937674418607" width="3" height="2.1119999999999997" as="geometry" />
        </mxCell>
        <mxCell id="b95crAYpzDAx5Qbeu-VA-35" value="" style="rounded=0;whiteSpace=wrap;html=1;strokeColor=#000000;fillColor=#e3c800;fontColor=#000000;strokeWidth=0.1;fontSize=3;fontFamily=Teko Light;container=0;" parent="b95crAYpzDAx5Qbeu-VA-285" vertex="1">
          <mxGeometry x="140.5" y="34.83937674418607" width="3" height="2.1119999999999997" as="geometry" />
        </mxCell>
        <mxCell id="b95crAYpzDAx5Qbeu-VA-36" value="" style="rounded=0;whiteSpace=wrap;html=1;strokeColor=#000000;fillColor=#60a917;fontColor=#ffffff;strokeWidth=0.1;fontSize=3;fontFamily=Teko Light;container=0;" parent="b95crAYpzDAx5Qbeu-VA-285" vertex="1">
          <mxGeometry x="144.5" y="34.83937674418607" width="3" height="2.1119999999999997" as="geometry" />
        </mxCell>
        <mxCell id="b95crAYpzDAx5Qbeu-VA-37" value="" style="rounded=0;whiteSpace=wrap;html=1;strokeColor=#000000;fillColor=#e3c800;fontColor=#000000;strokeWidth=0.1;fontSize=3;fontFamily=Teko Light;container=0;" parent="b95crAYpzDAx5Qbeu-VA-285" vertex="1">
          <mxGeometry x="155.5" y="34.83937674418607" width="3" height="2.1119999999999997" as="geometry" />
        </mxCell>
        <mxCell id="b95crAYpzDAx5Qbeu-VA-38" value="" style="rounded=0;whiteSpace=wrap;html=1;strokeColor=#000000;fillColor=#60a917;fontColor=#ffffff;strokeWidth=0.1;fontSize=3;fontFamily=Teko Light;container=0;" parent="b95crAYpzDAx5Qbeu-VA-285" vertex="1">
          <mxGeometry x="159.5" y="34.839376744186055" width="3" height="2.1119999999999997" as="geometry" />
        </mxCell>
        <mxCell id="b95crAYpzDAx5Qbeu-VA-39" value="" style="rounded=0;whiteSpace=wrap;html=1;strokeColor=#000000;fillColor=#e3c800;fontColor=#000000;strokeWidth=0.1;fontSize=3;fontFamily=Teko Light;container=0;" parent="b95crAYpzDAx5Qbeu-VA-285" vertex="1">
          <mxGeometry x="170.5" y="34.839376744186055" width="3" height="2.1119999999999997" as="geometry" />
        </mxCell>
        <mxCell id="b95crAYpzDAx5Qbeu-VA-41" value="3" style="text;html=1;align=center;verticalAlign=middle;rounded=0;fontSize=3;fontColor=#000000;fontFamily=Teko Light;spacing=0;whiteSpace=wrap;spacingRight=0;" parent="b95crAYpzDAx5Qbeu-VA-285" vertex="1">
          <mxGeometry x="131.5" y="38.449999999999996" width="10" height="3.45" as="geometry" />
        </mxCell>
        <mxCell id="b95crAYpzDAx5Qbeu-VA-42" value="5" style="text;html=1;align=center;verticalAlign=middle;rounded=0;fontSize=3;fontColor=#000000;fontFamily=Teko Light;spacing=0;whiteSpace=wrap;spacingRight=0;" parent="b95crAYpzDAx5Qbeu-VA-285" vertex="1">
          <mxGeometry x="146.5" y="38.449999999999996" width="10" height="3.45" as="geometry" />
        </mxCell>
        <mxCell id="b95crAYpzDAx5Qbeu-VA-43" value="7" style="text;html=1;align=center;verticalAlign=middle;rounded=0;fontSize=3;fontColor=#000000;fontFamily=Teko Light;spacing=0;whiteSpace=wrap;spacingRight=0;" parent="b95crAYpzDAx5Qbeu-VA-285" vertex="1">
          <mxGeometry x="161.5" y="38.449999999999996" width="10" height="3.45" as="geometry" />
        </mxCell>
        <mxCell id="b95crAYpzDAx5Qbeu-VA-44" value="2" style="text;html=1;align=center;verticalAlign=middle;rounded=0;fontSize=3;fontColor=#000000;fontFamily=Teko Light;spacing=0;whiteSpace=wrap;spacingRight=0;" parent="b95crAYpzDAx5Qbeu-VA-285" vertex="1">
          <mxGeometry x="116.5" y="6.999999999999993" width="10" height="3.45" as="geometry" />
        </mxCell>
        <mxCell id="b95crAYpzDAx5Qbeu-VA-45" value="4" style="text;html=1;align=center;verticalAlign=middle;rounded=0;fontSize=3;fontColor=#000000;fontFamily=Teko Light;spacing=0;whiteSpace=wrap;spacingRight=0;" parent="b95crAYpzDAx5Qbeu-VA-285" vertex="1">
          <mxGeometry x="131.5" y="6.999999999999993" width="10" height="3.45" as="geometry" />
        </mxCell>
        <mxCell id="b95crAYpzDAx5Qbeu-VA-46" value="6&lt;span style=&quot;color: rgba(0, 0, 0, 0); font-family: monospace; font-size: 0px; text-wrap: nowrap;&quot;&gt;%3CmxGraphModel%3E%3Croot%3E%3CmxCell%20id%3D%220%22%2F%3E%3CmxCell%20id%3D%221%22%20parent%3D%220%22%2F%3E%3CmxCell%20id%3D%222%22%20value%3D%222%22%20style%3D%22text%3Bhtml%3D1%3Balign%3Dcenter%3BverticalAlign%3Dmiddle%3BwhiteSpace%3Dwrap%3Brounded%3D0%3BfontSize%3D3%3BfontColor%3D%23000000%3BfontFamily%3DTeko%20Light%3Bspacing%3D0%3B%22%20vertex%3D%221%22%20parent%3D%221%22%3E%3CmxGeometry%20x%3D%22116.5%22%20y%3D%226.999999999999993%22%20width%3D%2210%22%20height%3D%223.45%22%20as%3D%22geometry%22%2F%3E%3C%2FmxCell%3E%3C%2Froot%3E%3C%2FmxGraphModel%3E&lt;/span&gt;" style="text;html=1;align=center;verticalAlign=middle;rounded=0;fontSize=3;fontColor=#000000;fontFamily=Teko Light;spacing=0;whiteSpace=wrap;spacingRight=0;" parent="b95crAYpzDAx5Qbeu-VA-285" vertex="1">
          <mxGeometry x="146.5" y="6.999999999999993" width="10" height="3.45" as="geometry" />
        </mxCell>
        <mxCell id="b95crAYpzDAx5Qbeu-VA-47" value="8" style="text;html=1;align=center;verticalAlign=middle;rounded=0;fontSize=3;fontColor=#000000;fontFamily=Teko Light;spacing=0;whiteSpace=wrap;spacingRight=0;" parent="b95crAYpzDAx5Qbeu-VA-285" vertex="1">
          <mxGeometry x="161.5" y="6.999999999999993" width="10" height="3.45" as="geometry" />
        </mxCell>
        <mxCell id="b95crAYpzDAx5Qbeu-VA-48" value="" style="shape=image;verticalLabelPosition=bottom;labelBackgroundColor=default;verticalAlign=top;imageAspect=0;image=data:image/svg+xml,PHN2ZyB4bWxuczp4bGluaz0iaHR0cDovL3d3dy53My5vcmcvMTk5OS94bGluayIgeG1sbnM9Imh0dHA6Ly93d3cudzMub3JnLzIwMDAvc3ZnIiB4bWw6c3BhY2U9InByZXNlcnZlIiBvdmVyZmxvdz0idmlzaWJsZSIgdmlld0JveD0iMCAwIDEwNDEuNzMgMTc5LjU5IiB5PSIwcHgiIHg9IjBweCIgaWQ9IkxheWVyXzEiIHZlcnNpb249IjEuMSI+JiN4YTs8cGF0aCBkPSJNNjQ2LjY5LDUzLjkybDAsMTAuMDRjMCwxLjg3LTEuNTQsMy4zNy0zLjQxLDMuM2MtMi44NS0wLjExLTYuODMtMC4yNS05LjI3LTAuMjkgIGMtMTMuNjMsMC0yMS4xNSw4LjEzLTIxLjE1LDIyLjl2MzYuNmMwLDEuODItMS40OCwzLjMtMy4zLDMuM0g1OTcuNmMtMS44MiwwLTMuMjktMS40OC0zLjI5LTMuM1Y1Mi45OGMwLTEuODIsMS40OC0zLjMsMy4yOS0zLjMgIGgxMS4zOWMxLjgyLDAsMy4zLDEuNDcsMy4zLDMuM3Y0LjY4YzUuNDUtNS42NSwxNC4xNC04LjY5LDI0Ljg4LTguNjljMS43OCwwLDQuMDMsMC4yNSw1LjYsMC40NyAgQzY0NS4wMSw0OS43NSw2NDYuNjksNTEuNjcsNjQ2LjY5LDUzLjkyeiBNNTI0LjM0LDg0Ljg3Yy0wLjY1LTAuODItMC41Ny0yLjAxLDAuMTgtMi43NWwyOS40Mi0yOC45YzEuMzItMS4zLDAuNC0zLjUzLTEuNDUtMy41MyAgaC0xNy4xMmMtMC44MywwLTEuNjIsMC4zMS0yLjIzLDAuODdsLTMzLjEzLDMwLjQxYy0xLjMyLDEuMjItMy40NiwwLjI4LTMuNDYtMS41MlY1Mi45OGMwLTEuODItMS40OC0zLjMtMy4zLTMuM0g0ODEuMyAgYy0xLjgyLDAtMy4zLDEuNDctMy4zLDMuM3Y3My40OGMwLDEuODIsMS40OCwzLjMsMy4zLDMuM2gxMS45M2MxLjgzLDAsMy4zMS0xLjQ5LDMuMy0zLjMybC0wLjExLTE3LjA1ICBjLTAuMDEtMC45MiwwLjM4LTEuODEsMS4wNi0yLjQ0bDEwLjMxLTkuNTZjMC44Ny0wLjgxLDIuMjYtMC43MSwzLjAxLDAuMjJsMjQuOSwzMC45MmMwLjYzLDAuNzgsMS41NywxLjIzLDIuNTcsMS4yM2gxNy4xOCAgYzEuNzIsMCwyLjY4LTEuOTgsMS42Mi0zLjM0TDUyNC4zNCw4NC44N3ogTTQyNi43NCw0OS42OWgtMTEuOTZjLTEuODIsMC0zLjMsMS40Ny0zLjMsMy4zdjczLjQ4YzAsMS44MiwxLjQ4LDMuMywzLjMsMy4zaDExLjk2ICBjMS44MiwwLDMuMy0xLjQ4LDMuMy0zLjNWNTIuOThDNDMwLjA0LDUxLjE2LDQyOC41Niw0OS42OSw0MjYuNzQsNDkuNjl6IE04NTUuMTcsNDkuNjloLTcyLjJjLTEuODEsMC0zLjMsMS40OC0zLjMsMy4zdjEwLjY5ICBjMCwxLjgyLDEuNDgsMy4zLDMuMywzLjNoMjQuNTVjMS4xNCwwLDIuMDYsMC45MiwyLjA2LDIuMDZ2NTcuNDNjMCwxLjgyLDEuNDgsMy4zLDMuMywzLjNoMTIuMzhjMS44MiwwLDMuMy0xLjQ4LDMuMy0zLjNWNjkuMDMgIGMwLTEuMTQsMC45Mi0yLjA2LDIuMDYtMi4wNmgyNC41NWMxLjgyLDAsMy4zLTEuNDgsMy4zLTMuM1Y1Mi45OEM4NTguNDcsNTEuMTYsODU2Ljk5LDQ5LjY5LDg1NS4xNyw0OS42OXogTTc1NC43LDg5LjcyICBjMCwyMy42OS0xNy40Myw0MC44OS00MS40NSw0MC44OWMtMjQuMSwwLTQxLjU5LTE3LjItNDEuNTktNDAuODljMC0yMy42MSwxNy40OS00MC43NCw0MS41OS00MC43NCAgQzczNy4yNyw0OC45OCw3NTQuNyw2Ni4xMSw3NTQuNyw4OS43MnogTTczNi4wMSw4OS43MmMwLTE0LjI5LTkuMTUtMjMuODktMjIuNzYtMjMuODljLTEzLjQ4LDAtMjIuODksOS44Mi0yMi44OSwyMy44OSAgYzAsMTQuMTUsOS40MSwyNC4wMywyMi44OSwyNC4wM0M3MjYuNjUsMTEzLjc2LDczNi4wMSwxMDMuODcsNzM2LjAxLDg5LjcyeiBNOTEwLjk1LDQ5LjY5aC0xMS45NmMtMS44MSwwLTMuMywxLjQ4LTMuMywzLjN2NzMuNDggIGMwLDEuODIsMS40OCwzLjMsMy4zLDMuM2gxMS45NmMxLjgyLDAsMy4zLTEuNDgsMy4zLTMuM1Y1Mi45OEM5MTQuMjUsNTEuMTYsOTEyLjc3LDQ5LjY5LDkxMC45NSw0OS42OXogTTMzMC4yOCw0OC45OCAgYy0xMC43OCwwLTIwLjQ4LDMuNzItMjcuMSwxMC4yOWMtMC44OSwwLjg4LTIuMjYsMC44MS0zLjA3LTAuMTNjLTUuNjYtNi41Ny0xNC4zNi0xMC4xNi0yNC44My0xMC4xNmMtOS42LDAtMTcuODEsMi44NS0yMy40Nyw4LjEyICB2LTQuMTJjMC0xLjgyLTEuNDgtMy4zLTMuMy0zLjNoLTExLjM5Yy0xLjgyLDAtMy4zLDEuNDctMy4zLDMuM3Y3My40OGMwLDEuODIsMS40OCwzLjMsMy4zLDMuM2gxMS45NmMxLjgyLDAsMy4yOS0xLjQ4LDMuMjktMy4zICBWODguNTljMC0xNC4yOSw3LjMyLTIyLjQ4LDIwLjA3LTIyLjQ4YzExLjI0LDAsMTYuOTQsNi41NiwxNi45NCwxOS41djQwLjg1YzAsMS44MiwxLjQ4LDMuMywzLjMsMy4zaDExLjk2YzEuODIsMCwzLjMtMS40OCwzLjMtMy4zICBWODguNTljMC0xNC4yOSw3LjMxLTIyLjQ4LDIwLjA2LTIyLjQ4YzExLjI1LDAsMTYuOTUsNi41NiwxNi45NSwxOS41djQwLjg1YzAsMS44MiwxLjQ4LDMuMywzLjMsMy4zaDExLjk2YzEuODIsMCwzLjMtMS40OCwzLjMtMy4zICBWODQuMDZDMzYzLjUyLDYxLjc3LDM1MS40LDQ4Ljk4LDMzMC4yOCw0OC45OHogTTEwNDEuMjksMTI2LjQybC0zMi43NC00MS41NWMtMC42NS0wLjgzLTAuNTctMi4wMSwwLjE4LTIuNzVsMjkuNDItMjguOTEgIGMxLjMyLTEuMjksMC40LTMuNTMtMS40NS0zLjUzaC0xNy4xMmMtMC44MiwwLTEuNjIsMC4zMS0yLjIzLDAuODdsLTMzLjEzLDMwLjQxYy0xLjMyLDEuMjEtMy40NiwwLjI4LTMuNDYtMS41MlY1Mi45OCAgYzAtMS44Mi0xLjQ4LTMuMy0zLjMtMy4zaC0xMS45NmMtMS44MiwwLTMuMywxLjQ4LTMuMywzLjN2NzMuNDhjMCwxLjgyLDEuNDgsMy4zLDMuMywzLjNoMTEuOTNjMS44MywwLDMuMzEtMS40OSwzLjMtMy4zMiAgbC0wLjExLTE3LjA0YzAtMC45MywwLjM4LTEuODEsMS4wNi0yLjQ0TDk5Miw5Ny4zOWMwLjg3LTAuODEsMi4yNi0wLjcxLDMuMDEsMC4yMmwyNC45LDMwLjkxYzAuNjMsMC43OCwxLjU3LDEuMjMsMi41NywxLjIzaDE3LjE4ICBDMTA0MS4zOSwxMjkuNzYsMTA0Mi4zNSwxMjcuNzgsMTA0MS4yOSwxMjYuNDJ6IE0xNjYuODcsNDYuMzFjLTAuMjItMC41LTAuNDUtMC45OC0wLjcxLTEuNDFjLTAuMjYtMC40My0wLjU3LTAuODYtMC45Mi0xLjI4ICBjLTEuODEtMi4yMi00Ljc2LTQuNC04LjUzLTYuNDdsLTMwLjMzLTE2LjYyTDk2LjA1LDMuODljLTMuNzctMi4wNy03LjIzLTMuNC0xMC4xNi0zLjc4Qzg1LjMzLDAuMDQsODQuNzgsMCw4NC4yNiwwICBjLTMuMjQsMC03LjMsMS40My0xMS44LDMuODlMNDIuMTMsMjAuNTJMMTEuOCwzNy4xNGMtMy43NywyLjA3LTYuNzIsNC4yNC04LjUzLDYuNDdjLTAuMzUsMC40My0wLjY2LDAuODYtMC45MiwxLjI4ICBjLTAuMjYsMC40My0wLjQ5LDAuOTEtMC43MSwxLjQxQzAuNTIsNDguOTEsMCw1Mi40MSwwLDU2LjU0djY2LjVjMCw0LjkzLDAuNzMsOC45OCwyLjM1LDExLjY1YzEuNjIsMi42Nyw0Ljk1LDUuMjksOS40NSw3Ljc1ICBsMzAuMzMsMTYuNjNsMzAuMzMsMTYuNjJjMy43NywyLjA2LDcuMjMsMy40LDEwLjE2LDMuNzhjMC41NiwwLjA3LDEuMTEsMC4xMiwxLjYzLDAuMTJjMC41MiwwLDEuMDctMC4wNCwxLjYzLTAuMTIgIGMyLjkzLTAuMzgsNi4zOS0xLjcxLDEwLjE2LTMuNzhsNjAuNjYtMzMuMjVjNC40OS0yLjQ2LDcuODMtNS4wOCw5LjQ1LTcuNzVjMC4yNi0wLjQzLDAuNDktMC45MSwwLjcxLTEuNDEgIGMxLjEyLTIuNiwxLjY0LTYuMTEsMS42NC0xMC4yNHYtNjYuNUMxNjguNTEsNTIuNDEsMTY3Ljk5LDQ4LjkxLDE2Ni44Nyw0Ni4zMXogTTQ4LjU4LDEyNC4zM2MwLDEuNTEtMS42MiwyLjQ4LTIuOTUsMS43NSAgbC0xMC44NS01Ljk1Yy0yLjU1LTEuNC00LjE0LTQuMDgtNC4xNC02Ljk5VjgxYzAtMS41MSwxLjYyLTIuNDcsMi45NS0xLjc1bDEyLjkzLDcuMDhjMS4yOCwwLjcsMi4wNywyLjA0LDIuMDcsMy41VjEyNC4zM3ogICBNMTM3Ljg3LDExMy4xNGMwLDIuOTEtMS41OSw1LjYtNC4xNCw3bC0xMC44NSw1Ljk0Yy0xLjMzLDAuNzMtMi45NS0wLjIzLTIuOTUtMS43NVY4MS43NWMwLTEuNTEtMS42Mi0yLjQ4LTIuOTUtMS43NWwtMTkuNiwxMC43NCAgYy0yLjU1LDEuNC00LjE0LDQuMDgtNC4xNCw2Ljk5djQyLjI0YzAsMS40Ni0wLjc5LDIuOC0yLjA3LDMuNWwtMy4wOCwxLjY4Yy0yLjM5LDEuMzEtNS4yOCwxLjMxLTcuNjcsMGwtMy4wNi0xLjY4ICBjLTEuMjgtMC43LTIuMDctMi4wNC0yLjA3LTMuNVY5Ny43NGMwLTIuOTEtMS41OS01LjU5LTQuMTQtNi45OWwtNDAuNTEtMjIuMnYtMi4xYzAtMi45MSwxLjU5LTUuNTksNC4xNC02Ljk5TDM5LjI1LDU3ICBjMi4zOS0xLjMxLDUuMjgtMS4zMSw3LjY2LDBsMzMuNTEsMTguMzZjMi4zOSwxLjMxLDUuMjgsMS4zMSw3LjY2LDBsMTUuNDgtOC40OWMxLjM4LTAuNzYsMS4zOC0yLjc0LDAtMy41TDY4Ljc4LDQ0LjMxICBjLTEuMzgtMC43Ni0xLjM4LTIuNzQsMC0zLjVsMTEuNjQtNi4zOGMyLjM5LTEuMzEsNS4yOC0xLjMxLDcuNjcsMGw0NS42NCwyNS4wMWMyLjU2LDEuNCw0LjE1LDQuMDgsNC4xNSw3VjExMy4xNHoiIGZpbGw9IiMyOTMyMzkiLz4mI3hhOzwvc3ZnPg==;" parent="b95crAYpzDAx5Qbeu-VA-285" vertex="1">
          <mxGeometry x="30" y="7" width="32" height="6" as="geometry" />
        </mxCell>
        <mxCell id="b95crAYpzDAx5Qbeu-VA-49" value="" style="rounded=0;whiteSpace=wrap;html=1;fillColor=#FFFFFF;strokeColor=#DDDDDD;glass=0;container=0;" parent="b95crAYpzDAx5Qbeu-VA-285" vertex="1">
          <mxGeometry x="218" width="246.6" height="44.45" as="geometry" />
        </mxCell>
        <mxCell id="b95crAYpzDAx5Qbeu-VA-51" value="" style="rounded=1;whiteSpace=wrap;html=1;glass=0;strokeColor=none;align=center;verticalAlign=middle;fontFamily=Helvetica;fontSize=12;fontColor=default;fillColor=#DDDDDD;arcSize=50;gradientColor=#BBBBBB;gradientDirection=north;" parent="b95crAYpzDAx5Qbeu-VA-285" vertex="1">
          <mxGeometry x="224" y="32.45" width="234.6" height="6" as="geometry" />
        </mxCell>
        <mxCell id="b95crAYpzDAx5Qbeu-VA-52" value="" style="rounded=1;whiteSpace=wrap;html=1;glass=0;strokeColor=none;align=center;verticalAlign=middle;fontFamily=Helvetica;fontSize=12;fontColor=default;fillColor=#DDDDDD;arcSize=50;gradientColor=#BBBBBB;gradientDirection=north;" parent="b95crAYpzDAx5Qbeu-VA-285" vertex="1">
          <mxGeometry x="224" y="6" width="234.6" height="6" as="geometry" />
        </mxCell>
        <mxCell id="b95crAYpzDAx5Qbeu-VA-284" value="" style="shape=image;verticalLabelPosition=bottom;labelBackgroundColor=default;verticalAlign=top;aspect=fixed;imageAspect=0;image=data:image/svg+xml,PHN2ZyB4bWxuczp4bGluaz0iaHR0cDovL3d3dy53My5vcmcvMTk5OS94bGluayIgeG1sbnM9Imh0dHA6Ly93d3cudzMub3JnLzIwMDAvc3ZnIiBoZWlnaHQ9IjI0LjE0NTcwNjI5NTk2NzExNiIgd2lkdGg9Ijc1LjMxOTE5MDA5OTgzNTQiIHZlcnNpb249IjEuMSIgdmlld0JveD0iMCAwIDc1LjMxOTE5MDA5OTgzNTQgMjQuMTQ1NzA2Mjk1OTY3MTE2Ij48cmVjdCBjbGFzcz0iIiBzdHlsZT0iIiBzdHJva2U9Im5vbmUiIGZpbGw9Im5vbmUiIHk9IjAiIHg9IjAiIGhlaWdodD0iMTAwJSIgd2lkdGg9IjEwMCUiIGlkPSJiYWNrZ3JvdW5kcmVjdCIvPjxkZWZzPjxzdHlsZSB0eXBlPSJ0ZXh0L2NzcyI+QGltcG9ydCB1cmwoImh0dHBzOi8vZm9udHMuZ29vZ2xlYXBpcy5jb20vY3NzP2ZhbWlseT1UaXRpbGxpdW0rV2ViIik7PC9zdHlsZT48c3R5bGUgdHlwZT0idGV4dC9jc3MiLz48L2RlZnM+PGcgc3R5bGU9IiIgY2xhc3M9ImN1cnJlbnRMYXllciI+PHRpdGxlPkxheWVyIDE8L3RpdGxlPjxnIHRyYW5zZm9ybT0icm90YXRlKDQ1LCAzNy4xMjc0LCAxMS40NTA5KSIgY2xhc3M9IiIgaWQ9InN2Z18xIj48ZyBpZD0ic3ZnXzIiLz48ZyBpZD0ic3ZnXzMiPjxyZWN0IGlkPSJzdmdfNCIgcG9pbnRlci1ldmVudHM9ImFsbCIgdHJhbnNmb3JtPSJyb3RhdGUoOTAsIDM0LjEyNzQsIDIxLjk1MDkpIiBzdHJva2U9Im5vbmUiIGZpbGw9IiMwMDAwMDAiIGhlaWdodD0iMS41IiB3aWR0aD0iMTMuNSIgeT0iMjEuMjAwOTA0ODQ2MTkxNDA2IiB4PSIyNy4zNzczOTA4NjE1MTEyMyIvPjwvZz48ZyBpZD0ic3ZnXzUiPjxyZWN0IGlkPSJzdmdfNiIgcG9pbnRlci1ldmVudHM9ImFsbCIgdHJhbnNmb3JtPSJyb3RhdGUoOTAsIDM3LjEyNzQsIDIxLjk1MDkpIiBzdHJva2U9Im5vbmUiIGZpbGw9IiMwMDAwMDAiIGhlaWdodD0iMS41IiB3aWR0aD0iNy41IiB5PSIyMS4yMDA5MDQ4NDYxOTE0MDYiIHg9IjMzLjM3NzM5MDg2MTUxMTIzIi8+PC9nPjxnIGlkPSJzdmdfNyI+PHJlY3QgaWQ9InN2Z184IiBwb2ludGVyLWV2ZW50cz0iYWxsIiB0cmFuc2Zvcm09InJvdGF0ZSg5MCwgNDAuMTI3NCwgMjAuNDUwOSkiIHN0cm9rZT0ibm9uZSIgZmlsbD0iIzAwMDAwMCIgaGVpZ2h0PSIxLjUiIHdpZHRoPSI0LjUiIHk9IjE5LjcwMDkwNDg0NjE5MTQwNiIgeD0iMzcuODc3MzkwODYxNTExMjMiLz48L2c+PGcgaWQ9InN2Z185Ij48cmVjdCBpZD0ic3ZnXzEwIiBwb2ludGVyLWV2ZW50cz0iYWxsIiB0cmFuc2Zvcm09InJvdGF0ZSg5MCwgNDMuMTI3NCwgMTguOTUwOSkiIHN0cm9rZT0ibm9uZSIgZmlsbD0iIzAwMDAwMCIgaGVpZ2h0PSIxLjUiIHdpZHRoPSIxLjUiIHk9IjE4LjIwMDkwNDg0NjE5MTQwNiIgeD0iNDIuMzc3MzkwODYxNTExMjMiLz48L2c+PGcgaWQ9InN2Z18xMSI+PHJlY3QgaWQ9InN2Z18xMiIgcG9pbnRlci1ldmVudHM9ImFsbCIgdHJhbnNmb3JtPSJyb3RhdGUoOTAsIDM0LjEyNzQsIDYuOTUwOSkiIHN0cm9rZT0ibm9uZSIgZmlsbD0iIzAwMDAwMCIgaGVpZ2h0PSIxLjUiIHdpZHRoPSIxMy41IiB5PSI2LjIwMDkwNDg0NjE5MTQwNiIgeD0iMjcuMzc3MzkwODYxNTExMjMiLz48L2c+PGcgaWQ9InN2Z18xMyI+PHJlY3QgaWQ9InN2Z18xNCIgcG9pbnRlci1ldmVudHM9ImFsbCIgdHJhbnNmb3JtPSJyb3RhdGUoOTAsIDM3LjEyNzQsIDYuOTUwOSkiIHN0cm9rZT0ibm9uZSIgZmlsbD0iIzAwMDAwMCIgaGVpZ2h0PSIxLjUiIHdpZHRoPSI3LjUiIHk9IjYuMjAwOTA0ODQ2MTkxNDA2IiB4PSIzMy4zNzczOTA4NjE1MTEyMyIvPjwvZz48ZyBpZD0ic3ZnXzE1Ij48cmVjdCBpZD0ic3ZnXzE2IiBwb2ludGVyLWV2ZW50cz0iYWxsIiB0cmFuc2Zvcm09InJvdGF0ZSg5MCwgNDAuMTI3NCwgNS40NTA5KSIgc3Ryb2tlPSJub25lIiBmaWxsPSIjMDAwMDAwIiBoZWlnaHQ9IjEuNSIgd2lkdGg9IjQuNSIgeT0iNC43MDA5MDQ4NDYxOTE0MDYiIHg9IjM3Ljg3NzM5MDg2MTUxMTIzIi8+PC9nPjxnIGlkPSJzdmdfMTciPjxyZWN0IGlkPSJzdmdfMTgiIHBvaW50ZXItZXZlbnRzPSJhbGwiIHRyYW5zZm9ybT0icm90YXRlKDkwLCA0My4xMjc0LCAzLjk1MDkpIiBzdHJva2U9Im5vbmUiIGZpbGw9IiMwMDAwMDAiIGhlaWdodD0iMS41IiB3aWR0aD0iMS41IiB5PSIzLjIwMDkwNDg0NjE5MTQwNjIiIHg9IjQyLjM3NzM5MDg2MTUxMTIzIi8+PC9nPjxnIGlkPSJzdmdfMTkiPjxyZWN0IGlkPSJzdmdfMjAiIHBvaW50ZXItZXZlbnRzPSJhbGwiIHRyYW5zZm9ybT0icm90YXRlKDE4MCwgNDAuMTI3NCwgMTUuOTUwOSkiIHN0cm9rZT0ibm9uZSIgZmlsbD0iIzAwMDAwMCIgaGVpZ2h0PSIxLjUiIHdpZHRoPSI3LjUiIHk9IjE1LjIwMDkwNDg0NjE5MTQwNiIgeD0iMzYuMzc3MzkwODYxNTExMjMiLz48L2c+PGcgaWQ9InN2Z18yMSI+PHJlY3QgaWQ9InN2Z18yMiIgcG9pbnRlci1ldmVudHM9ImFsbCIgdHJhbnNmb3JtPSJyb3RhdGUoMTgwLCA0MC4xMjc0LCAwLjk1MDkwNSkiIHN0cm9rZT0ibm9uZSIgZmlsbD0iIzAwMDAwMCIgaGVpZ2h0PSIxLjUiIHdpZHRoPSI3LjUiIHk9IjAuMjAwOTA0ODQ2MTkxNDA2MjUiIHg9IjM2LjM3NzM5MDg2MTUxMTIzIi8+PC9nPjxnIGlkPSJzdmdfMjMiPjxyZWN0IGlkPSJzdmdfMjQiIHBvaW50ZXItZXZlbnRzPSJhbGwiIHRyYW5zZm9ybT0icm90YXRlKDE4MCwgNDAuMTI3NCwgMTIuOTUwOSkiIHN0cm9rZT0ibm9uZSIgZmlsbD0iIzAwMDAwMCIgaGVpZ2h0PSIxLjUiIHdpZHRoPSI3LjUiIHk9IjEyLjIwMDkwNDg0NjE5MTQwNiIgeD0iMzYuMzc3MzkwODYxNTExMjMiLz48L2c+PGcgaWQ9InN2Z18yNSI+PHJlY3QgaWQ9InN2Z18yNiIgcG9pbnRlci1ldmVudHM9ImFsbCIgdHJhbnNmb3JtPSJyb3RhdGUoMTgwLCA0MS42Mjc0LCA5Ljk1MDkpIiBzdHJva2U9Im5vbmUiIGZpbGw9IiMwMDAwMDAiIGhlaWdodD0iMS41IiB3aWR0aD0iNC41IiB5PSI5LjIwMDkwNDg0NjE5MTQwNiIgeD0iMzkuMzc3MzkwODYxNTExMjMiLz48L2c+PGcgaWQ9InN2Z18yNyI+PHJlY3QgaWQ9InN2Z18yOCIgcG9pbnRlci1ldmVudHM9ImFsbCIgdHJhbnNmb3JtPSJyb3RhdGUoOTAsIDQzLjEyNzQsIDYuOTUwOSkiIHN0cm9rZT0ibm9uZSIgZmlsbD0iIzAwMDAwMCIgaGVpZ2h0PSIxLjUiIHdpZHRoPSIxLjUiIHk9IjYuMjAwOTA0ODQ2MTkxNDA2IiB4PSI0Mi4zNzczOTA4NjE1MTEyMyIvPjwvZz48ZyBpZD0ic3ZnXzI5Ij48cmVjdCBpZD0ic3ZnXzMwIiBwb2ludGVyLWV2ZW50cz0iYWxsIiB0cmFuc2Zvcm09InJvdGF0ZSgxODAsIDQwLjEyNzQsIC0yLjA0OTEpIiBzdHJva2U9Im5vbmUiIGZpbGw9IiMwMDAwMDAiIGhlaWdodD0iMS41IiB3aWR0aD0iNy41IiB5PSItMi43OTkwOTUxNTM4MDg1OTM4IiB4PSIzNi4zNzczOTA4NjE1MTEyMyIvPjwvZz48ZyBpZD0ic3ZnXzMxIj48cmVjdCBpZD0ic3ZnXzMyIiBwb2ludGVyLWV2ZW50cz0iYWxsIiB0cmFuc2Zvcm09InJvdGF0ZSgxODAsIDQxLjYyNzQsIC01LjA0OTEpIiBzdHJva2U9Im5vbmUiIGZpbGw9IiMwMDAwMDAiIGhlaWdodD0iMS41IiB3aWR0aD0iNC41IiB5PSItNS43OTkwOTUxNTM4MDg1OTQiIHg9IjM5LjM3NzM5MDg2MTUxMTIzIi8+PC9nPjxnIGlkPSJzdmdfMzMiPjxyZWN0IGlkPSJzdmdfMzQiIHBvaW50ZXItZXZlbnRzPSJhbGwiIHRyYW5zZm9ybT0icm90YXRlKDkwLCA0My4xMjc0LCAtOC4wNDkxKSIgc3Ryb2tlPSJub25lIiBmaWxsPSIjMDAwMDAwIiBoZWlnaHQ9IjEuNSIgd2lkdGg9IjEuNSIgeT0iLTguNzk5MDk1MTUzODA4NTk0IiB4PSI0Mi4zNzczOTA4NjE1MTEyMyIvPjwvZz48ZyBpZD0ic3ZnXzM1Ij48cmVjdCBpZD0ic3ZnXzM2IiBwb2ludGVyLWV2ZW50cz0iYWxsIiB0cmFuc2Zvcm09InJvdGF0ZSgxODAsIDI4LjEyNzQsIDI3Ljk1MDkpIiBzdHJva2U9Im5vbmUiIGZpbGw9IiMwMDAwMDAiIGhlaWdodD0iMS41IiB3aWR0aD0iNy41IiB5PSIyNy4yMDA5MDQ4NDYxOTE0MDYiIHg9IjI0LjM3NzM5MDg2MTUxMTIzIi8+PC9nPjxnIGlkPSJzdmdfMzciPjxyZWN0IGlkPSJzdmdfMzgiIHBvaW50ZXItZXZlbnRzPSJhbGwiIHRyYW5zZm9ybT0icm90YXRlKDE4MCwgMjguMTI3NCwgMjQuOTUwOSkiIHN0cm9rZT0ibm9uZSIgZmlsbD0iIzAwMDAwMCIgaGVpZ2h0PSIxLjUiIHdpZHRoPSI3LjUiIHk9IjI0LjIwMDkwNDg0NjE5MTQwNiIgeD0iMjQuMzc3MzkwODYxNTExMjMiLz48L2c+PGcgaWQ9InN2Z18zOSI+PHJlY3QgaWQ9InN2Z180MCIgcG9pbnRlci1ldmVudHM9ImFsbCIgdHJhbnNmb3JtPSJyb3RhdGUoMTgwLCAyOS42Mjc0LCAyMS45NTA5KSIgc3Ryb2tlPSJub25lIiBmaWxsPSIjMDAwMDAwIiBoZWlnaHQ9IjEuNSIgd2lkdGg9IjQuNSIgeT0iMjEuMjAwOTA0ODQ2MTkxNDA2IiB4PSIyNy4zNzczOTA4NjE1MTEyMyIvPjwvZz48ZyBpZD0ic3ZnXzQxIj48cmVjdCBpZD0ic3ZnXzQyIiBwb2ludGVyLWV2ZW50cz0iYWxsIiB0cmFuc2Zvcm09InJvdGF0ZSg5MCwgMzEuMTI3NCwgMTguOTUwOSkiIHN0cm9rZT0ibm9uZSIgZmlsbD0iIzAwMDAwMCIgaGVpZ2h0PSIxLjUiIHdpZHRoPSIxLjUiIHk9IjE4LjIwMDkwNDg0NjE5MTQwNiIgeD0iMzAuMzc3MzkwODYxNTExMjMiLz48L2c+PGcgaWQ9InN2Z180MyI+PHJlY3QgaWQ9InN2Z180NCIgcG9pbnRlci1ldmVudHM9ImFsbCIgdHJhbnNmb3JtPSJyb3RhdGUoOTAsIDMxLjEyNzQsIDMwLjk1MDkpIiBzdHJva2U9Im5vbmUiIGZpbGw9IiMwMDAwMDAiIGhlaWdodD0iMS41IiB3aWR0aD0iMS41IiB5PSIzMC4yMDA5MDQ4NDYxOTE0MDYiIHg9IjMwLjM3NzM5MDg2MTUxMTIzIi8+PC9nPjxnIGlkPSJzdmdfNDUiPjxyZWN0IGlkPSJzdmdfNDYiIHBvaW50ZXItZXZlbnRzPSJhbGwiIHRyYW5zZm9ybT0icm90YXRlKDkwLCAyMi4xMjc0LCAzMy45NTA5KSIgc3Ryb2tlPSJub25lIiBmaWxsPSIjMDAwMDAwIiBoZWlnaHQ9IjEuNSIgd2lkdGg9IjEzLjUiIHk9IjMzLjIwMDkwNDg0NjE5MTQwNiIgeD0iMTUuMzc3MzkwODYxNTExMjMiLz48L2c+PGcgaWQ9InN2Z180NyI+PHJlY3QgaWQ9InN2Z180OCIgcG9pbnRlci1ldmVudHM9ImFsbCIgdHJhbnNmb3JtPSJyb3RhdGUoOTAsIDI1LjEyNzQsIDMzLjk1MDkpIiBzdHJva2U9Im5vbmUiIGZpbGw9IiMwMDAwMDAiIGhlaWdodD0iMS41IiB3aWR0aD0iNy41IiB5PSIzMy4yMDA5MDQ4NDYxOTE0MDYiIHg9IjIxLjM3NzM5MDg2MTUxMTIzIi8+PC9nPjxnIGlkPSJzdmdfNDkiPjxyZWN0IGlkPSJzdmdfNTAiIHBvaW50ZXItZXZlbnRzPSJhbGwiIHRyYW5zZm9ybT0icm90YXRlKDkwLCAyOC4xMjc0LCAzMi40NTA5KSIgc3Ryb2tlPSJub25lIiBmaWxsPSIjMDAwMDAwIiBoZWlnaHQ9IjEuNSIgd2lkdGg9IjQuNSIgeT0iMzEuNzAwOTA0ODQ2MTkxNDA2IiB4PSIyNS44NzczOTA4NjE1MTEyMyIvPjwvZz48ZyBpZD0ic3ZnXzUxIj48cmVjdCBpZD0ic3ZnXzUyIiBwb2ludGVyLWV2ZW50cz0iYWxsIiB0cmFuc2Zvcm09InJvdGF0ZSg5MCwgMTkuMTI3NCwgNDIuOTUwOSkiIHN0cm9rZT0ibm9uZSIgZmlsbD0iIzAwMDAwMCIgaGVpZ2h0PSIxLjUiIHdpZHRoPSIxLjUiIHk9IjQyLjIwMDkwNDg0NjE5MTQwNiIgeD0iMTguMzc3MzkwODYxNTExMjMiLz48L2c+PGcgaWQ9InN2Z181MyI+PHJlY3QgaWQ9InN2Z181NCIgcG9pbnRlci1ldmVudHM9ImFsbCIgdHJhbnNmb3JtPSJyb3RhdGUoMTgwLCAxNy42Mjc0LCAzOS45NTA5KSIgc3Ryb2tlPSJub25lIiBmaWxsPSIjMDAwMDAwIiBoZWlnaHQ9IjEuNSIgd2lkdGg9IjQuNSIgeT0iMzkuMjAwOTA0ODQ2MTkxNDA2IiB4PSIxNS4zNzczOTA4NjE1MTEyMyIvPjwvZz48ZyBpZD0ic3ZnXzU1Ij48cmVjdCBpZD0ic3ZnXzU2IiBwb2ludGVyLWV2ZW50cz0iYWxsIiB0cmFuc2Zvcm09InJvdGF0ZSgxODAsIDE2LjEyNzQsIDM2Ljk1MDkpIiBzdHJva2U9Im5vbmUiIGZpbGw9IiMwMDAwMDAiIGhlaWdodD0iMS41IiB3aWR0aD0iNy41IiB5PSIzNi4yMDA5MDQ4NDYxOTE0MDYiIHg9IjEyLjM3NzM5MDg2MTUxMTIzIi8+PC9nPjxnIGlkPSJzdmdfNTciPjxyZWN0IGlkPSJzdmdfNTgiIHBvaW50ZXItZXZlbnRzPSJhbGwiIHRyYW5zZm9ybT0icm90YXRlKDE4MCwgMTcuNjI3NCwgMzMuOTUwOSkiIHN0cm9rZT0ibm9uZSIgZmlsbD0iIzAwMDAwMCIgaGVpZ2h0PSIxLjUiIHdpZHRoPSI0LjUiIHk9IjMzLjIwMDkwNDg0NjE5MTQwNiIgeD0iMTUuMzc3MzkwODYxNTExMjMiLz48L2c+PGcgaWQ9InN2Z181OSI+PHJlY3QgaWQ9InN2Z182MCIgcG9pbnRlci1ldmVudHM9ImFsbCIgdHJhbnNmb3JtPSJyb3RhdGUoOTAsIDE5LjEyNzQsIDMwLjk1MDkpIiBzdHJva2U9Im5vbmUiIGZpbGw9IiMwMDAwMDAiIGhlaWdodD0iMS41IiB3aWR0aD0iMS41IiB5PSIzMC4yMDA5MDQ4NDYxOTE0MDYiIHg9IjE4LjM3NzM5MDg2MTUxMTIzIi8+PC9nPjxnIGlkPSJzdmdfNjEiPjxyZWN0IGlkPSJzdmdfNjIiIHBvaW50ZXItZXZlbnRzPSJhbGwiIHRyYW5zZm9ybT0icm90YXRlKDkwLCA0Ni4xMjc0LCAtNS4wNDkxKSIgc3Ryb2tlPSJub25lIiBmaWxsPSIjMDAwMDAwIiBoZWlnaHQ9IjEuNSIgd2lkdGg9IjEzLjUiIHk9Ii01Ljc5OTA5NTE1MzgwODU5NCIgeD0iMzkuMzc3MzkwODYxNTExMjMiLz48L2c+PGcgaWQ9InN2Z182MyI+PHJlY3QgaWQ9InN2Z182NCIgcG9pbnRlci1ldmVudHM9ImFsbCIgdHJhbnNmb3JtPSJyb3RhdGUoOTAsIDQ5LjEyNzQsIC01LjA0OTEpIiBzdHJva2U9Im5vbmUiIGZpbGw9IiMwMDAwMDAiIGhlaWdodD0iMS41IiB3aWR0aD0iNy41IiB5PSItNS43OTkwOTUxNTM4MDg1OTQiIHg9IjQ1LjM3NzM5MDg2MTUxMTIzIi8+PC9nPjxnIGlkPSJzdmdfNjUiPjxyZWN0IGlkPSJzdmdfNjYiIHBvaW50ZXItZXZlbnRzPSJhbGwiIHRyYW5zZm9ybT0icm90YXRlKDkwLCA1Mi4xMjc0LCAtNi41NDkxKSIgc3Ryb2tlPSJub25lIiBmaWxsPSIjMDAwMDAwIiBoZWlnaHQ9IjEuNSIgd2lkdGg9IjQuNSIgeT0iLTcuMjk5MDk1MTUzODA4NTk0IiB4PSI0OS44NzczOTA4NjE1MTEyMyIvPjwvZz48ZyBpZD0ic3ZnXzY3Ij48cmVjdCBpZD0ic3ZnXzY4IiBwb2ludGVyLWV2ZW50cz0iYWxsIiB0cmFuc2Zvcm09InJvdGF0ZSg5MCwgNTUuMTI3NCwgLTguMDQ5MSkiIHN0cm9rZT0ibm9uZSIgZmlsbD0iIzAwMDAwMCIgaGVpZ2h0PSIxLjUiIHdpZHRoPSIxLjUiIHk9Ii04Ljc5OTA5NTE1MzgwODU5NCIgeD0iNTQuMzc3MzkwODYxNTExMjMiLz48L2c+PGcgaWQ9InN2Z182OSI+PHJlY3QgaWQ9InN2Z183MCIgcG9pbnRlci1ldmVudHM9ImFsbCIgdHJhbnNmb3JtPSJyb3RhdGUoMTgwLCA1Mi4xMjc0LCAtMTEuMDQ5MSkiIHN0cm9rZT0ibm9uZSIgZmlsbD0iIzAwMDAwMCIgaGVpZ2h0PSIxLjUiIHdpZHRoPSI3LjUiIHk9Ii0xMS43OTkwOTUxNTM4MDg1OTQiIHg9IjQ4LjM3NzM5MDg2MTUxMTIzIi8+PC9nPjxnIGlkPSJzdmdfNzEiPjxyZWN0IGlkPSJzdmdfNzIiIHBvaW50ZXItZXZlbnRzPSJhbGwiIHRyYW5zZm9ybT0icm90YXRlKDE4MCwgNTIuMTI3NCwgLTE0LjA0OTEpIiBzdHJva2U9Im5vbmUiIGZpbGw9IiMwMDAwMDAiIGhlaWdodD0iMS41IiB3aWR0aD0iNy41IiB5PSItMTQuNzk5MDk1MTUzODA4NTk0IiB4PSI0OC4zNzczOTA4NjE1MTEyMyIvPjwvZz48ZyBpZD0ic3ZnXzczIj48cmVjdCBpZD0ic3ZnXzc0IiBwb2ludGVyLWV2ZW50cz0iYWxsIiB0cmFuc2Zvcm09InJvdGF0ZSgxODAsIDUzLjYyNzQsIC0xNy4wNDkxKSIgc3Ryb2tlPSJub25lIiBmaWxsPSIjMDAwMDAwIiBoZWlnaHQ9IjEuNSIgd2lkdGg9IjQuNSIgeT0iLTE3Ljc5OTA5NTE1MzgwODU5NCIgeD0iNTEuMzc3MzkwODYxNTExMjMiLz48L2c+PGcgaWQ9InN2Z183NSI+PHJlY3QgaWQ9InN2Z183NiIgcG9pbnRlci1ldmVudHM9ImFsbCIgdHJhbnNmb3JtPSJyb3RhdGUoOTAsIDU1LjEyNzQsIC0yMC4wNDkxKSIgc3Ryb2tlPSJub25lIiBmaWxsPSIjMDAwMDAwIiBoZWlnaHQ9IjEuNSIgd2lkdGg9IjEuNSIgeT0iLTIwLjc5OTA5NTE1MzgwODU5NCIgeD0iNTQuMzc3MzkwODYxNTExMjMiLz48L2c+PGcgaWQ9InN2Z183NyI+PHJlY3QgaWQ9InN2Z183OCIgcG9pbnRlci1ldmVudHM9ImFsbCIgdHJhbnNmb3JtPSJyb3RhdGUoOTAsIDU4LjEyNzQsIC0xNC4wNDkxKSIgc3Ryb2tlPSJub25lIiBmaWxsPSIjMDAwMDAwIiBoZWlnaHQ9IjEuNSIgd2lkdGg9IjcuNSIgeT0iLTE0Ljc5OTA5NTE1MzgwODU5NCIgeD0iNTQuMzc3MzkwODYxNTExMjMiLz48L2c+PGcgaWQ9InN2Z183OSI+PHJlY3QgaWQ9InN2Z184MCIgcG9pbnRlci1ldmVudHM9ImFsbCIgdHJhbnNmb3JtPSJyb3RhdGUoOTAsIDYxLjEyNzQsIC0xNC4wNDkxKSIgc3Ryb2tlPSJub25lIiBmaWxsPSIjMDAwMDAwIiBoZWlnaHQ9IjEuNSIgd2lkdGg9IjEuNSIgeT0iLTE0Ljc5OTA5NTE1MzgwODU5NCIgeD0iNjAuMzc3MzkwODYxNTExMjMiLz48L2c+PC9nPjwvZz48L3N2Zz4=;" parent="b95crAYpzDAx5Qbeu-VA-285" vertex="1">
          <mxGeometry x="28.53" y="5" width="80" height="25" as="geometry" />
        </mxCell>
        <mxCell id="b95crAYpzDAx5Qbeu-VA-57" value="12-57 V" style="text;align=center;verticalAlign=middle;rounded=0;spacing=0;spacingBottom=0;textShadow=0;fontFamily=Teko Light;fontSize=3;fontColor=#000000;spacingRight=0;spacingLeft=0;whiteSpace=wrap;html=1;container=0;" parent="b95crAYpzDAx5Qbeu-VA-285" vertex="1">
          <mxGeometry x="85.50000000000003" y="38.97000000000001" width="6.44" height="2.4" as="geometry" />
        </mxCell>
        <mxCell id="b95crAYpzDAx5Qbeu-VA-58" value="" style="group" parent="b95crAYpzDAx5Qbeu-VA-285" vertex="1" connectable="0">
          <mxGeometry x="83.72" y="27.450000000000003" width="10" height="11" as="geometry" />
        </mxCell>
        <mxCell id="b95crAYpzDAx5Qbeu-VA-54" value="" style="rounded=0;whiteSpace=wrap;html=1;strokeColor=#000000;fillColor=#333333;fontColor=#ffffff;strokeWidth=0.1;fontSize=3;fontFamily=Teko Light;align=center;verticalAlign=middle;container=0;" parent="b95crAYpzDAx5Qbeu-VA-58" vertex="1">
          <mxGeometry width="10" height="11" as="geometry" />
        </mxCell>
        <mxCell id="b95crAYpzDAx5Qbeu-VA-55" value="" style="ellipse;whiteSpace=wrap;html=1;aspect=fixed;strokeWidth=0.1;strokeColor=#000000;fillColor=#000000;container=0;" parent="b95crAYpzDAx5Qbeu-VA-58" vertex="1">
          <mxGeometry x="2" y="1.497272727272744" width="6" height="6" as="geometry" />
        </mxCell>
        <mxCell id="b95crAYpzDAx5Qbeu-VA-56" value="" style="ellipse;whiteSpace=wrap;html=1;aspect=fixed;strokeWidth=0.1;strokeColor=#000000;fillColor=#FFD966;container=0;" parent="b95crAYpzDAx5Qbeu-VA-58" vertex="1">
          <mxGeometry x="4" y="3.497272727272744" width="2" height="2" as="geometry" />
        </mxCell>
        <mxCell id="b95crAYpzDAx5Qbeu-VA-278" value="DC" style="text;align=center;verticalAlign=middle;rounded=0;spacing=0;spacingBottom=0;textShadow=0;fontFamily=Teko Light;fontSize=3;fontColor=#000000;spacingRight=0;spacingLeft=0;whiteSpace=wrap;html=1;container=0;" parent="b95crAYpzDAx5Qbeu-VA-285" vertex="1">
          <mxGeometry x="85.50000000000003" y="21.950000000000014" width="6.44" height="2.4" as="geometry" />
        </mxCell>
        <mxCell id="b95crAYpzDAx5Qbeu-VA-282" value="" style="shape=image;verticalLabelPosition=bottom;labelBackgroundColor=default;verticalAlign=top;aspect=fixed;imageAspect=0;image=data:image/svg+xml,PHN2ZyB4bWxucz0iaHR0cDovL3d3dy53My5vcmcvMjAwMC9zdmciIHN0eWxlPSJmaWxsLXJ1bGU6ZXZlbm9kZDtzdHJva2Utd2lkdGg6MjguMjIyMDAwMTI7c3Ryb2tlLWxpbmVqb2luOnJvdW5kIiBpZD0ic3ZnMiIgeG1sOnNwYWNlPSJwcmVzZXJ2ZSIgcHJlc2VydmVBc3BlY3RSYXRpbz0ieE1pZFlNaWQiIHZpZXdCb3g9IjAgMCAxMjAwMy4wMDEgMzAwMi4wMDAzIiBoZWlnaHQ9IjMwLjAyMDAwMm1tIiB3aWR0aD0iMTIwLjAzMDAxbW0iIHZlcnNpb249IjEuMiI+PG1ldGFkYXRhIGlkPSJtZXRhZGF0YTEzNSI+aW1hZ2Uvc3ZnK3htbDwvbWV0YWRhdGE+PGRlZnMgaWQ9ImRlZnM0IiBjbGFzcz0iQ2xpcFBhdGhHcm91cCI+PGNsaXBQYXRoIGNsaXBQYXRoVW5pdHM9InVzZXJTcGFjZU9uVXNlIiBpZD0icHJlc2VudGF0aW9uX2NsaXBfcGF0aCI+PHJlY3QgaWQ9InJlY3Q3IiBoZWlnaHQ9IjI3OTQwIiB3aWR0aD0iMjE1OTAiIHk9IjAiIHg9IjAiLz48L2NsaXBQYXRoPjxjbGlwUGF0aCBjbGlwUGF0aFVuaXRzPSJ1c2VyU3BhY2VPblVzZSIgaWQ9InByZXNlbnRhdGlvbl9jbGlwX3BhdGhfc2hyaW5rIj48cmVjdCBpZD0icmVjdDEwIiBoZWlnaHQ9IjI3ODg1IiB3aWR0aD0iMjE1NDciIHk9IjI3IiB4PSIyMSIvPjwvY2xpcFBhdGg+PC9kZWZzPjxkZWZzIGlkPSJkZWZzMTIiIGNsYXNzPSJUZXh0U2hhcGVJbmRleCI+PGcgaWQ9ImcxNCIvPjwvZGVmcz48ZGVmcyBpZD0iZGVmczE2IiBjbGFzcz0iRW1iZWRkZWRCdWxsZXRDaGFycyI+PGcgdHJhbnNmb3JtPSJzY2FsZSg0Ljg4MjgxMjVlLTQsLTQuODgyODEyNWUtNCkiIGlkPSJidWxsZXQtY2hhci10ZW1wbGF0ZSg1NzM1NikiPjxwYXRoIGlkPSJwYXRoMTkiIGQ9Ik0gNTgwLDExNDEgMTE2Myw1NzEgNTgwLDAgLTQsNTcxIDU4MCwxMTQxIFoiLz48L2c+PGcgdHJhbnNmb3JtPSJzY2FsZSg0Ljg4MjgxMjVlLTQsLTQuODgyODEyNWUtNCkiIGlkPSJidWxsZXQtY2hhci10ZW1wbGF0ZSg1NzM1NCkiPjxwYXRoIGlkPSJwYXRoMjIiIGQ9Im0gOCwxMTI4IDExMjksMCBMIDExMzcsMCA4LDAgOCwxMTI4IFoiLz48L2c+PGcgdHJhbnNmb3JtPSJzY2FsZSg0Ljg4MjgxMjVlLTQsLTQuODgyODEyNWUtNCkiIGlkPSJidWxsZXQtY2hhci10ZW1wbGF0ZSgxMDE0NikiPjxwYXRoIGlkPSJwYXRoMjUiIGQ9Ik0gMTc0LDAgNjAyLDczOSAxNzQsMTQ4MSAxNDU2LDczOSAxNzQsMCBaIG0gMTE4NCw3MzkgLTEwNDksNjA3IDM1MCwtNjA3IDY5OSwwIHoiLz48L2c+PGcgdHJhbnNmb3JtPSJzY2FsZSg0Ljg4MjgxMjVlLTQsLTQuODgyODEyNWUtNCkiIGlkPSJidWxsZXQtY2hhci10ZW1wbGF0ZSgxMDEzMikiPjxwYXRoIGlkPSJwYXRoMjgiIGQ9Ik0gMjAxNSw3MzkgMTI3NiwwIDcxNywwIGwgNTQzLDU0MyAtMTA4NiwwIDAsMzkzIDEwODYsMCAtNTQzLDU0NSA1NTcsMCA3NDEsLTc0MiB6Ii8+PC9nPjxnIHRyYW5zZm9ybT0ic2NhbGUoNC44ODI4MTI1ZS00LC00Ljg4MjgxMjVlLTQpIiBpZD0iYnVsbGV0LWNoYXItdGVtcGxhdGUoMTAwMDcpIj48cGF0aCBpZD0icGF0aDMxIiBkPSJtIDAsLTIgYyAtNywxNiAtMTYsMjkgLTI1LDM5IGwgMzgxLDUzMCBjIC05NCwyNTYgLTE0MSwzODUgLTE0MSwzODcgMCwyNSAxMywzOCA0MCwzOCA5LDAgMjEsLTIgMzQsLTUgMjEsNCA0MiwxMiA2NSwyNSBsIDI3LC0xMyAxMTEsLTI1MSAyODAsMzAxIDY0LC0yNSAyNCwyNSBjIDIxLC0xMCA0MSwtMjQgNjIsLTQzIEMgODg2LDkzNyA4MzUsODYzIDc3MCw3ODQgNzY5LDc4MyA3MTAsNzE2IDU5NCw1ODQgTCA3NzQsMjIzIGMgMCwtMjcgLTIxLC01NSAtNjMsLTg0IGwgMTYsLTIwIEMgNzE3LDkwIDY5OSw3NiA2NzIsNzYgNjQxLDc2IDU3MCwxNzggNDU3LDM4MSBMIDE2NCwtNzYgYyAtMjIsLTM0IC01MywtNTEgLTkyLC01MSAtNDIsMCAtNjMsMTcgLTY0LDUxIC03LDkgLTEwLDI0IC0xMCw0NCAwLDkgMSwxOSAyLDMwIHoiLz48L2c+PGcgdHJhbnNmb3JtPSJzY2FsZSg0Ljg4MjgxMjVlLTQsLTQuODgyODEyNWUtNCkiIGlkPSJidWxsZXQtY2hhci10ZW1wbGF0ZSgxMDAwNCkiPjxwYXRoIGlkPSJwYXRoMzQiIGQ9Ik0gMjg1LC0zMyBDIDE4MiwtMzMgMTExLDMwIDc0LDE1NiA1MiwyMjggNDEsMzMzIDQxLDQ3MSBjIDAsNzggMTQsMTQ1IDQxLDIwMSAzNCw3MSA4NywxMDYgMTU4LDEwNiA1MywwIDg4LC0zMSAxMDYsLTk0IGwgMjMsLTE3NiBjIDgsLTY0IDI4LC05NyA1OSwtOTggbCA3MzUsNzA2IGMgMTEsMTEgMzMsMTcgNjYsMTcgNDIsMCA2MywtMTUgNjMsLTQ2IGwgMCwtMTIyIGMgMCwtMzYgLTEwLC02NCAtMzAsLTg0IEwgNDQyLDQ3IEMgMzkwLC02IDMzOCwtMzMgMjg1LC0zMyBaIi8+PC9nPjxnIHRyYW5zZm9ybT0ic2NhbGUoNC44ODI4MTI1ZS00LC00Ljg4MjgxMjVlLTQpIiBpZD0iYnVsbGV0LWNoYXItdGVtcGxhdGUoOTY3OSkiPjxwYXRoIGlkPSJwYXRoMzciIGQ9Ik0gODEzLDAgQyA2MzIsMCA0ODksNTQgMzgzLDE2MSAyNzYsMjY4IDIyMyw0MTEgMjIzLDU5MiBjIDAsMTgxIDUzLDMyNCAxNjAsNDMxIDEwNiwxMDcgMjQ5LDE2MSA0MzAsMTYxIDE3OSwwIDMyMywtNTQgNDMyLC0xNjEgMTA4LC0xMDcgMTYyLC0yNTEgMTYyLC00MzEgMCwtMTgwIC01NCwtMzI0IC0xNjIsLTQzMSBDIDExMzYsNTQgOTkyLDAgODEzLDAgWiIvPjwvZz48ZyB0cmFuc2Zvcm09InNjYWxlKDQuODgyODEyNWUtNCwtNC44ODI4MTI1ZS00KSIgaWQ9ImJ1bGxldC1jaGFyLXRlbXBsYXRlKDgyMjYpIj48cGF0aCBpZD0icGF0aDQwIiBkPSJtIDM0Niw0NTcgYyAtNzMsMCAtMTM3LDI2IC0xOTEsNzggLTU0LDUxIC04MSwxMTQgLTgxLDE4OCAwLDczIDI3LDEzNiA4MSwxODggNTQsNTIgMTE4LDc4IDE5MSw3OCA3MywwIDEzNCwtMjYgMTg1LC03OSA1MSwtNTEgNzcsLTExNCA3NywtMTg3IDAsLTc1IC0yNSwtMTM3IC03NiwtMTg4IC01MCwtNTIgLTExMiwtNzggLTE4NiwtNzggeiIvPjwvZz48ZyB0cmFuc2Zvcm09InNjYWxlKDQuODgyODEyNWUtNCwtNC44ODI4MTI1ZS00KSIgaWQ9ImJ1bGxldC1jaGFyLXRlbXBsYXRlKDgyMTEpIj48cGF0aCBpZD0icGF0aDQzIiBkPSJtIC00LDQ1OSAxMTM5LDAgMCwxNDcgLTExMzksMCAwLC0xNDcgeiIvPjwvZz48ZyB0cmFuc2Zvcm09InNjYWxlKDQuODgyODEyNWUtNCwtNC44ODI4MTI1ZS00KSIgaWQ9ImJ1bGxldC1jaGFyLXRlbXBsYXRlKDYxNTQ4KSI+PHBhdGggaWQ9InBhdGg0NiIgZD0ibSAxNzMsNzQwIGMgMCwxNjMgNTgsMzAzIDE3Myw0MTkgMTE2LDExNSAyNTUsMTczIDQxOSwxNzMgMTYzLDAgMzAyLC01OCA0MTgsLTE3MyAxMTYsLTExNiAxNzQsLTI1NiAxNzQsLTQxOSAwLC0xNjMgLTU4LC0zMDMgLTE3NCwtNDE4IEMgMTA2NywyMDYgOTI4LDE0OCA3NjUsMTQ4IDYwMSwxNDggNDYyLDIwNiAzNDYsMzIyIDIzMSw0MzcgMTczLDU3NyAxNzMsNzQwIFoiLz48L2c+PC9kZWZzPjxkZWZzIGlkPSJkZWZzNDgiIGNsYXNzPSJUZXh0RW1iZWRkZWRCaXRtYXBzIi8+PGcgdHJhbnNmb3JtPSJ0cmFuc2xhdGUoLTQwMDAsLTQ1MDApIiBpZD0iZzUwIj48ZyBjbGFzcz0iTWFzdGVyX1NsaWRlIiBpZD0iaWQyIj48ZyBjbGFzcz0iQmFja2dyb3VuZCIgaWQ9ImJnLWlkMiIvPjxnIGNsYXNzPSJCYWNrZ3JvdW5kT2JqZWN0cyIgaWQ9ImJvLWlkMiIvPjwvZz48L2c+PGcgdHJhbnNmb3JtPSJ0cmFuc2xhdGUoLTQwMDAsLTQ1MDApIiBjbGFzcz0iY29tLnN1bi5zdGFyLmRyYXdpbmcuQ3VzdG9tU2hhcGUiIGlkPSJnNjMiPjxnIGlkPSJpZDMiPjxyZWN0IGNsYXNzPSJCb3VuZGluZ0JveCIgeD0iOTMwMCIgeT0iNTMwMCIgd2lkdGg9IjE0MDIiIGhlaWdodD0iMTQwMyIgaWQ9InJlY3Q2NiIgc3R5bGU9ImZpbGw6bm9uZTtzdHJva2U6bm9uZSIvPjxwYXRoIGQ9Im0gOTk5OSw1MzAwIGMgMzk2LDAgNzAwLDMwMyA3MDAsNjk5IDAsMzk2IC0zMDQsNzAwIC03MDAsNzAwIC0zOTYsMCAtNjk5LC0zMDQgLTY5OSwtNzAwIDAsLTM5NiAzMDMsLTY5OSA2OTksLTY5OSB6IG0gLTY5OSwwIDAsMCB6IG0gMTQwMSwxNDAxIDAsMCB6IiBpZD0icGF0aDY4IiBzdHlsZT0iZmlsbDojMDAwMDAwO3N0cm9rZTpub25lIi8+PC9nPjwvZz48ZyB0cmFuc2Zvcm09InRyYW5zbGF0ZSgtNDAwMCwtNDUwMCkiIGNsYXNzPSJjb20uc3VuLnN0YXIuZHJhd2luZy5DdXN0b21TaGFwZSIgaWQ9Imc3MCI+PGcgaWQ9ImlkNCI+PHJlY3QgY2xhc3M9IkJvdW5kaW5nQm94IiB4PSI4NDk5IiB5PSI0NTAyIiB3aWR0aD0iMzAwMyIgaGVpZ2h0PSIzMDAwIiBpZD0icmVjdDczIiBzdHlsZT0iZmlsbDpub25lO3N0cm9rZTpub25lIi8+PHBhdGggZD0ibSAxMTIyOSw1MTQyIC00NCwtNjAgLTQ3LC01NyAtNTAsLTU1IC01MywtNTMgLTU1LC01MCAtNTcsLTQ3IC02MCwtNDQgLTYyLC00MiAtNjQsLTM4IC02NSwtMzUgLTY4LC0zMSAtNjksLTI4IC03MCwtMjYgLTcxLC0yMiAtNzIsLTE3IC03MywtMTQgLTc0LC0xMSAtNzQsLTcgLTc0LC0zIC03NCwxIC03NSw0IC03NCw4IC03MywxMiAtNzMsMTUgLTcyLDE5IC03MSwyMSAtNzAsMjYgLTY4LDI5IC02NywzMyAtNjUsMzYgLTYzLDM5IC02MSw0MiAtNjAsNDUgLTU2LDQ4IC01NSw1MSAtNTEsNTMgLTQ5LDU2IC00Nyw1OCAtNDMsNjEgLTQwLDYzIC0zOCw2NCAtMzQsNjYgLTMwLDY4IC0yNyw2OSAtMjQsNzAgLTIwLDcyIC0xNiw3MiAtMTMsNzMgLTEwLDc0IC01LDc0IC0yLDc1IDIsNzQgNSw3NCAxMCw3NCAxMiw3MyAxNyw3MyAyMCw3MSAyMyw3MiAyNyw2OSAzMSw2OCAzNCw2NiAzNiw2NSA0MCw2MiA0Myw2MSA0Niw1OCA0OSw1NiA1Miw1NCA1NCw1MCA1Nyw0OSA1OSw0NSA2MSw0MiA2MywzOSA2NiwzNiA2NiwzMyA2OSwyOSA2OSwyNiA3MSwyMyA3MiwxOSA3MywxNSA3NCwxMiA3Myw4IDc1LDQgNzQsMSA3NCwtMyA3NCwtNyA3NCwtMTEgNzMsLTE0IDcyLC0xNyA3MiwtMjEgNzAsLTI0IDY5LC0yOCA2NywtMzIgNjYsLTM1IDYzLC0zOCA2MiwtNDEgNjAsLTQ0IDU4LC00OCA1NSwtNDkgNTIsLTUzIDUwLC01NSA0NywtNTggNDUsLTYwIC0yNjUsLTE4NSAtMzYsNDYgLTM3LDQ2IC0zOSw0MyAtNDEsNDEgLTQzLDM5IC00NSwzNyAtNDcsMzUgLTQ4LDMyIC01MSwzMCAtNTEsMjggLTUzLDIzIC01NCwyMyAtNTUsMTkgLTU2LDE3IC01NiwxNCAtNTcsMTEgLTU4LDggLTU4LDUgLTU4LDMgLTU5LC0xIC01OCwtMyAtNTgsLTYgLTU4LC05IC01NywtMTIgLTU2LC0xNSAtNTYsLTE3IC01NCwtMjEgLTU0LC0yNCAtNTIsLTI1IC01MSwtMjggLTUwLC0zMSAtNDgsLTMzIC00NiwtMzUgLTQ1LC0zOCAtNDIsLTQwIC00MSwtNDIgLTM4LC00NCAtMzYsLTQ1IC0zNCwtNDggLTMxLC00OSAtMjksLTUwIC0yNywtNTIgLTIzLC01MyAtMjIsLTU1IC0xOCwtNTUgLTE2LC01NiAtMTMsLTU3IC0xMCwtNTcgLTcsLTU4IC01LC01OCAtMSwtNTkgMSwtNTggNSwtNTggNywtNTggMTAsLTU3IDEzLC01NyAxNiwtNTYgMTgsLTU2IDIxLC01NCAyNCwtNTMgMjcsLTUyIDI5LC01MSAzMSwtNDkgMzQsLTQ3IDM3LC00NiAzOSwtNDQgNDAsLTQyIDQzLC00MCA0NCwtMzcgNDYsLTM2IDQ4LC0zMyA1MCwtMzAgNTEsLTI5IDUzLC0yNSA1MywtMjIgNTUsLTIwIDU1LC0xOCA1NywtMTUgNTcsLTEyIDU3LC05IDU4LC02IDU5LC0zIDU4LC0xIDU4LDMgNTgsNSA1OCw4IDU3LDExIDU3LDE0IDU2LDE3IDU1LDE5IDU0LDIyIDUyLDI2IDUyLDI3IDUwLDMwIDQ4LDMzIDQ3LDM0IDQ1LDM3IDQ0LDM5IDQxLDQyIDM5LDQzIDM3LDQ1IDMzLDQ3IDI2OCwtMTg3IHogbSAtMjcyOSwyMzU2IDAsMCB6IG0gMzAwMCwtMjk5NCAwLDAgeiIgaWQ9InBhdGg3NSIgc3R5bGU9ImZpbGw6IzAwMDAwMDtzdHJva2U6bm9uZSIvPjwvZz48L2c+PGcgdHJhbnNmb3JtPSJ0cmFuc2xhdGUoLTQwMDAsLTQ1MDApIiBjbGFzcz0iY29tLnN1bi5zdGFyLmRyYXdpbmcuQ3VzdG9tU2hhcGUiIGlkPSJnNzciPjxnIGlkPSJpZDUiPjxyZWN0IGNsYXNzPSJCb3VuZGluZ0JveCIgeD0iMTMwMDAiIHk9IjQ1MDAiIHdpZHRoPSIzMDAzIiBoZWlnaHQ9IjMwMDIiIGlkPSJyZWN0ODAiIHN0eWxlPSJmaWxsOm5vbmU7c3Ryb2tlOm5vbmUiLz48cGF0aCBkPSJtIDE0NTAwLDQ1MDAgYyA4NTAsMCAxNTAwLDY1MCAxNTAwLDE1MDAgMCw4NTAgLTY1MCwxNTAwIC0xNTAwLDE1MDAgLTg1MCwwIC0xNTAwLC02NTAgLTE1MDAsLTE1MDAgMCwtODUwIDY1MCwtMTUwMCAxNTAwLC0xNTAwIHogbSAtMSwzMjkgYyA2NjMsMCAxMTcwLDUwNyAxMTcwLDExNzAgMCw2NjMgLTUwNywxMTcwIC0xMTcwLDExNzAgLTY2MywwIC0xMTcwLC01MDcgLTExNzAsLTExNzAgMCwtNjYzIDUwNywtMTE3MCAxMTcwLC0xMTcwIHogbSAtMTQ5OSwtMzI5IDAsMCB6IG0gMzAwMSwzMDAxIDAsMCB6IiBpZD0icGF0aDgyIiBzdHlsZT0iZmlsbDojMDAwMDAwO3N0cm9rZTpub25lIi8+PC9nPjwvZz48ZyB0cmFuc2Zvcm09InRyYW5zbGF0ZSgtNDAwMCwtNDUwMCkiIGNsYXNzPSJjb20uc3VuLnN0YXIuZHJhd2luZy5DdXN0b21TaGFwZSIgaWQ9Imc4NCI+PGcgaWQ9ImlkNiI+PHJlY3QgY2xhc3M9IkJvdW5kaW5nQm94IiB4PSI0MDAwIiB5PSI0NTAwIiB3aWR0aD0iMzAwMiIgaGVpZ2h0PSIzMDAyIiBpZD0icmVjdDg3IiBzdHlsZT0iZmlsbDpub25lO3N0cm9rZTpub25lIi8+PHBhdGggZD0ibSA1NTAwLDQ1MDAgYyA4NTAsMCAxNTAwLDY1MCAxNTAwLDE1MDAgMCw4NTAgLTY1MCwxNTAwIC0xNTAwLDE1MDAgLTg1MCwwIC0xNTAwLC02NTAgLTE1MDAsLTE1MDAgMCwtODUwIDY1MCwtMTUwMCAxNTAwLC0xNTAwIHogbSAtMSwzMjkgYyA2NjMsMCAxMTcwLDUwNyAxMTcwLDExNzAgMCw2NjMgLTUwNywxMTcwIC0xMTcwLDExNzAgLTY2MywwIC0xMTcwLC01MDcgLTExNzAsLTExNzAgMCwtNjYzIDUwNywtMTE3MCAxMTcwLC0xMTcwIHogbSAtMTQ5OSwtMzI5IDAsMCB6IG0gMzAwMSwzMDAxIDAsMCB6IiBpZD0icGF0aDg5IiBzdHlsZT0iZmlsbDojMDAwMDAwO3N0cm9rZTpub25lIi8+PC9nPjwvZz48ZyB0cmFuc2Zvcm09InRyYW5zbGF0ZSgtNDAwMCwtNDUwMCkiIGNsYXNzPSJjb20uc3VuLnN0YXIuZHJhd2luZy5DdXN0b21TaGFwZSIgaWQ9Imc5MSI+PGcgaWQ9ImlkNyI+PHJlY3QgY2xhc3M9IkJvdW5kaW5nQm94IiB4PSI2OTAwIiB5PSI1ODUwIiB3aWR0aD0iMTcwMSIgaGVpZ2h0PSIzMDEiIGlkPSJyZWN0OTQiIHN0eWxlPSJmaWxsOm5vbmU7c3Ryb2tlOm5vbmUiLz48cGF0aCBkPSJtIDc3NTAsNjE1MCAtODUwLDAgMCwtMzAwIDE3MDAsMCAwLDMwMCAtODUwLDAgeiIgaWQ9InBhdGg5NiIgc3R5bGU9ImZpbGw6IzAwMDAwMDtzdHJva2U6bm9uZSIvPjwvZz48L2c+PGcgdHJhbnNmb3JtPSJ0cmFuc2xhdGUoLTQwMDAsLTQ1MDApIiBjbGFzcz0iY29tLnN1bi5zdGFyLmRyYXdpbmcuQ3VzdG9tU2hhcGUiIGlkPSJnOTgiPjxnIGlkPSJpZDgiPjxyZWN0IGNsYXNzPSJCb3VuZGluZ0JveCIgeD0iMTA0NTAiIHk9IjU4NTAiIHdpZHRoPSIyNjAxIiBoZWlnaHQ9IjMwMSIgaWQ9InJlY3QxMDEiIHN0eWxlPSJmaWxsOm5vbmU7c3Ryb2tlOm5vbmUiLz48cGF0aCBkPSJtIDExNzUwLDYxNTAgLTEzMDAsMCAwLC0zMDAgMjYwMCwwIDAsMzAwIC0xMzAwLDAgeiIgaWQ9InBhdGgxMDMiIHN0eWxlPSJmaWxsOiMwMDAwMDA7c3Ryb2tlOm5vbmUiLz48L2c+PC9nPjxnIHRyYW5zZm9ybT0idHJhbnNsYXRlKC00MDAwLC00NTAwKSIgY2xhc3M9ImNvbS5zdW4uc3Rhci5kcmF3aW5nLkN1c3RvbVNoYXBlIiBpZD0iZzEwNSI+PGcgaWQ9ImlkOSI+PHJlY3QgY2xhc3M9IkJvdW5kaW5nQm94IiB4PSI0NzUwIiB5PSI1ODUwIiB3aWR0aD0iMTUwMSIgaGVpZ2h0PSIzMDEiIGlkPSJyZWN0MTA4IiBzdHlsZT0iZmlsbDpub25lO3N0cm9rZTpub25lIi8+PHBhdGggZD0ibSA1NTAwLDYxNTAgLTc1MCwwIDAsLTMwMCAxNTAwLDAgMCwzMDAgLTc1MCwwIHoiIGlkPSJwYXRoMTEwIiBzdHlsZT0iZmlsbDojMDAwMDAwO3N0cm9rZTpub25lIi8+PC9nPjwvZz48ZyB0cmFuc2Zvcm09InRyYW5zbGF0ZSgtNDAwMCwtNDUwMCkiIGNsYXNzPSJjb20uc3VuLnN0YXIuZHJhd2luZy5DdXN0b21TaGFwZSIgaWQ9ImcxMTIiPjxnIGlkPSJpZDEwIj48cmVjdCBjbGFzcz0iQm91bmRpbmdCb3giIHg9IjEzNzUwIiB5PSI1ODUwIiB3aWR0aD0iMTUwMSIgaGVpZ2h0PSIzMDEiIGlkPSJyZWN0MTE1IiBzdHlsZT0iZmlsbDpub25lO3N0cm9rZTpub25lIi8+PHBhdGggZD0ibSAxNDUwMCw2MTUwIC03NTAsMCAwLC0zMDAgMTUwMCwwIDAsMzAwIC03NTAsMCB6IiBpZD0icGF0aDExNyIgc3R5bGU9ImZpbGw6IzAwMDAwMDtzdHJva2U6bm9uZSIvPjwvZz48L2c+PGcgdHJhbnNmb3JtPSJ0cmFuc2xhdGUoLTQwMDAsLTQ1MDApIiBjbGFzcz0iY29tLnN1bi5zdGFyLmRyYXdpbmcuQ3VzdG9tU2hhcGUiIGlkPSJnMTI2Ij48ZyBpZD0iaWQxMiI+PHJlY3QgY2xhc3M9IkJvdW5kaW5nQm94IiB4PSIxNDM1MCIgeT0iNTI1MCIgd2lkdGg9IjMwMSIgaGVpZ2h0PSIxNTAxIiBpZD0icmVjdDEyOSIgc3R5bGU9ImZpbGw6bm9uZTtzdHJva2U6bm9uZSIvPjxwYXRoIGQ9Im0gMTQ1MDAsNjc1MCAtMTUwLDAgMCwtMTUwMCAzMDAsMCAwLDE1MDAgLTE1MCwwIHoiIGlkPSJwYXRoMTMxIiBzdHlsZT0iZmlsbDojMDAwMDAwO3N0cm9rZTpub25lIi8+PC9nPjwvZz48L3N2Zz4=;" parent="b95crAYpzDAx5Qbeu-VA-285" vertex="1">
          <mxGeometry x="84.72" y="24.939999999999998" width="8" height="2" as="geometry" />
        </mxCell>
      </root>
    </mxGraphModel>
  </diagram>
</mxfile>
